# Blender 4.4.0
# www.blender.org
mtllib 1x1_hotel_room_straight.mtl
o UCX_1x1_hotel_room_straight_00
v -10.000000 -0.600000 10.000000
v -10.000000 0.000000 10.000000
v -10.000000 -0.600000 -10.000000
v -10.000000 0.000000 -10.000000
v 10.000000 -0.600000 10.000000
v 10.000000 0.000000 10.000000
v 10.000000 -0.600000 -10.000000
v 10.000000 0.000000 -10.000000
vn -1.0000 -0.0000 -0.0000
vn -0.0000 -0.0000 -1.0000
vn 1.0000 -0.0000 -0.0000
vn -0.0000 -0.0000 1.0000
vn -0.0000 -1.0000 -0.0000
vn -0.0000 1.0000 -0.0000
vt 0.375000 0.000000
vt 0.625000 0.000000
vt 0.625000 0.250000
vt 0.375000 0.250000
vt 0.625000 0.500000
vt 0.375000 0.500000
vt 0.625000 0.750000
vt 0.375000 0.750000
vt 0.625000 1.000000
vt 0.375000 1.000000
vt 0.125000 0.500000
vt 0.125000 0.750000
vt 0.875000 0.500000
vt 0.875000 0.750000
s 0
f 1/1/1 2/2/1 4/3/1 3/4/1
f 3/4/2 4/3/2 8/5/2 7/6/2
f 7/6/3 8/5/3 6/7/3 5/8/3
f 5/8/4 6/7/4 2/9/4 1/10/4
f 3/11/5 7/6/5 5/8/5 1/12/5
f 8/5/6 4/13/6 2/14/6 6/7/6
o UCX_1x1_hotel_room_straight_02
v 9.858880 0.000000 10.100000
v 9.858880 10.000000 10.100000
v 1.999480 0.000000 10.100000
v 1.999480 10.000000 10.100000
v 9.858880 0.000000 9.500000
v 9.858880 10.000000 9.500000
v 1.999480 0.000000 9.500000
v 1.999480 10.000000 9.500000
vn -0.0000 -0.0000 1.0000
vn -1.0000 -0.0000 -0.0000
vn -0.0000 -0.0000 -1.0000
vn 1.0000 -0.0000 -0.0000
vn -0.0000 -1.0000 -0.0000
vn -0.0000 1.0000 -0.0000
vt 0.375000 0.000000
vt 0.625000 0.000000
vt 0.625000 0.250000
vt 0.375000 0.250000
vt 0.625000 0.500000
vt 0.375000 0.500000
vt 0.625000 0.750000
vt 0.375000 0.750000
vt 0.625000 1.000000
vt 0.375000 1.000000
vt 0.125000 0.500000
vt 0.125000 0.750000
vt 0.875000 0.500000
vt 0.875000 0.750000
s 0
f 9/15/7 10/16/7 12/17/7 11/18/7
f 11/18/8 12/17/8 16/19/8 15/20/8
f 15/20/9 16/19/9 14/21/9 13/22/9
f 13/22/10 14/21/10 10/23/10 9/24/10
f 11/25/11 15/20/11 13/22/11 9/26/11
f 16/19/12 12/27/12 10/28/12 14/21/12
o UCX_1x1_hotel_room_straight_03
v -1.999480 -0.000000 10.100000
v -1.999480 10.000000 10.100000
v -9.858881 -0.000000 10.100000
v -9.858881 10.000000 10.100000
v -1.999480 -0.000000 9.500000
v -1.999480 10.000000 9.500000
v -9.858881 -0.000000 9.500000
v -9.858881 10.000000 9.500000
vn -0.0000 -0.0000 1.0000
vn -1.0000 -0.0000 -0.0000
vn -0.0000 -0.0000 -1.0000
vn 1.0000 -0.0000 -0.0000
vn -0.0000 -1.0000 -0.0000
vn -0.0000 1.0000 -0.0000
vt 0.375000 0.000000
vt 0.625000 0.000000
vt 0.625000 0.250000
vt 0.375000 0.250000
vt 0.625000 0.500000
vt 0.375000 0.500000
vt 0.625000 0.750000
vt 0.375000 0.750000
vt 0.625000 1.000000
vt 0.375000 1.000000
vt 0.125000 0.500000
vt 0.125000 0.750000
vt 0.875000 0.500000
vt 0.875000 0.750000
s 0
f 17/29/13 18/30/13 20/31/13 19/32/13
f 19/32/14 20/31/14 24/33/14 23/34/14
f 23/34/15 24/33/15 22/35/15 21/36/15
f 21/36/16 22/35/16 18/37/16 17/38/16
f 19/39/17 23/34/17 21/36/17 17/40/17
f 24/33/18 20/41/18 18/42/18 22/35/18
o UCX_1x1_hotel_room_straight_04
v 1.998704 7.017788 10.100000
v 1.998704 9.997766 10.100000
v -1.998704 7.017788 10.100000
v -1.998704 9.997766 10.100000
v 1.998704 7.017788 9.500000
v 1.998704 9.997766 9.500000
v -1.998704 7.017788 9.500000
v -1.998704 9.997766 9.500000
vn -0.0000 -0.0000 1.0000
vn -1.0000 -0.0000 -0.0000
vn -0.0000 -0.0000 -1.0000
vn 1.0000 -0.0000 -0.0000
vn -0.0000 -1.0000 -0.0000
vn -0.0000 1.0000 -0.0000
vt 0.375000 0.000000
vt 0.625000 0.000000
vt 0.625000 0.250000
vt 0.375000 0.250000
vt 0.625000 0.500000
vt 0.375000 0.500000
vt 0.625000 0.750000
vt 0.375000 0.750000
vt 0.625000 1.000000
vt 0.375000 1.000000
vt 0.125000 0.500000
vt 0.125000 0.750000
vt 0.875000 0.500000
vt 0.875000 0.750000
s 0
f 25/43/19 26/44/19 28/45/19 27/46/19
f 27/46/20 28/45/20 32/47/20 31/48/20
f 31/48/21 32/47/21 30/49/21 29/50/21
f 29/50/22 30/49/22 26/51/22 25/52/22
f 27/53/23 31/48/23 29/50/23 25/54/23
f 32/47/24 28/55/24 26/56/24 30/49/24
o UCX_1x1_hotel_room_straight_10
v -10.000000 9.900000 10.000000
v -10.000000 10.500000 10.000000
v -10.000000 9.900000 -10.000000
v -10.000000 10.500000 -10.000000
v 10.000000 9.900000 10.000000
v 10.000000 10.500000 10.000000
v 10.000000 9.900000 -10.000000
v 10.000000 10.500000 -10.000000
vn -1.0000 -0.0000 -0.0000
vn -0.0000 -0.0000 -1.0000
vn 1.0000 -0.0000 -0.0000
vn -0.0000 -0.0000 1.0000
vn -0.0000 -1.0000 -0.0000
vn -0.0000 1.0000 -0.0000
vt 0.375000 0.000000
vt 0.625000 0.000000
vt 0.625000 0.250000
vt 0.375000 0.250000
vt 0.625000 0.500000
vt 0.375000 0.500000
vt 0.625000 0.750000
vt 0.375000 0.750000
vt 0.625000 1.000000
vt 0.375000 1.000000
vt 0.125000 0.500000
vt 0.125000 0.750000
vt 0.875000 0.500000
vt 0.875000 0.750000
s 0
f 33/57/25 34/58/25 36/59/25 35/60/25
f 35/60/26 36/59/26 40/61/26 39/62/26
f 39/62/27 40/61/27 38/63/27 37/64/27
f 37/64/28 38/63/28 34/65/28 33/66/28
f 35/67/29 39/62/29 37/64/29 33/68/29
f 40/61/30 36/69/30 34/70/30 38/63/30
o UCX_1x1_hotel_room_straight_08
v 9.500000 0.000000 10.000000
v 9.500000 10.000000 10.000000
v 9.500000 0.000000 -10.000000
v 9.500000 10.000000 -10.000000
v 10.100000 0.000000 10.000000
v 10.100000 10.000000 10.000000
v 10.100000 0.000000 -10.000000
v 10.100000 10.000000 -10.000000
vn -1.0000 -0.0000 -0.0000
vn -0.0000 -0.0000 -1.0000
vn 1.0000 -0.0000 -0.0000
vn -0.0000 -0.0000 1.0000
vn -0.0000 -1.0000 -0.0000
vn -0.0000 1.0000 -0.0000
vt 0.375000 0.000000
vt 0.625000 0.000000
vt 0.625000 0.250000
vt 0.375000 0.250000
vt 0.625000 0.500000
vt 0.375000 0.500000
vt 0.625000 0.750000
vt 0.375000 0.750000
vt 0.625000 1.000000
vt 0.375000 1.000000
vt 0.125000 0.500000
vt 0.125000 0.750000
vt 0.875000 0.500000
vt 0.875000 0.750000
s 0
f 41/71/31 42/72/31 44/73/31 43/74/31
f 43/74/32 44/73/32 48/75/32 47/76/32
f 47/76/33 48/75/33 46/77/33 45/78/33
f 45/78/34 46/77/34 42/79/34 41/80/34
f 43/81/35 47/76/35 45/78/35 41/82/35
f 48/75/36 44/83/36 42/84/36 46/77/36
o UCX_1x1_hotel_room_straight_09
v -10.100000 0.000000 10.000000
v -10.100000 10.000000 10.000000
v -10.100000 0.000000 -10.000000
v -10.100000 10.000000 -10.000000
v -9.500000 0.000000 10.000000
v -9.500000 10.000000 10.000000
v -9.500000 0.000000 -10.000000
v -9.500000 10.000000 -10.000000
vn -1.0000 -0.0000 -0.0000
vn -0.0000 -0.0000 -1.0000
vn 1.0000 -0.0000 -0.0000
vn -0.0000 -0.0000 1.0000
vn -0.0000 -1.0000 -0.0000
vn -0.0000 1.0000 -0.0000
vt 0.375000 0.000000
vt 0.625000 0.000000
vt 0.625000 0.250000
vt 0.375000 0.250000
vt 0.625000 0.500000
vt 0.375000 0.500000
vt 0.625000 0.750000
vt 0.375000 0.750000
vt 0.625000 1.000000
vt 0.375000 1.000000
vt 0.125000 0.500000
vt 0.125000 0.750000
vt 0.875000 0.500000
vt 0.875000 0.750000
s 0
f 49/85/37 50/86/37 52/87/37 51/88/37
f 51/88/38 52/87/38 56/89/38 55/90/38
f 55/90/39 56/89/39 54/91/39 53/92/39
f 53/92/40 54/91/40 50/93/40 49/94/40
f 51/95/41 55/90/41 53/92/41 49/96/41
f 56/89/42 52/97/42 50/98/42 54/91/42
o UCX_1x1_hotel_room_straight_06
v 9.858880 0.000000 -9.500000
v 9.858880 10.000000 -9.500000
v 1.999480 0.000000 -9.500000
v 1.999480 10.000000 -9.500000
v 9.858880 0.000000 -10.100000
v 9.858880 10.000000 -10.100000
v 1.999480 0.000000 -10.100000
v 1.999480 10.000000 -10.100000
vn -0.0000 -0.0000 1.0000
vn -1.0000 -0.0000 -0.0000
vn -0.0000 -0.0000 -1.0000
vn 1.0000 -0.0000 -0.0000
vn -0.0000 -1.0000 -0.0000
vn -0.0000 1.0000 -0.0000
vt 0.375000 0.000000
vt 0.625000 0.000000
vt 0.625000 0.250000
vt 0.375000 0.250000
vt 0.625000 0.500000
vt 0.375000 0.500000
vt 0.625000 0.750000
vt 0.375000 0.750000
vt 0.625000 1.000000
vt 0.375000 1.000000
vt 0.125000 0.500000
vt 0.125000 0.750000
vt 0.875000 0.500000
vt 0.875000 0.750000
s 0
f 57/99/43 58/100/43 60/101/43 59/102/43
f 59/102/44 60/101/44 64/103/44 63/104/44
f 63/104/45 64/103/45 62/105/45 61/106/45
f 61/106/46 62/105/46 58/107/46 57/108/46
f 59/109/47 63/104/47 61/106/47 57/110/47
f 64/103/48 60/111/48 58/112/48 62/105/48
o UCX_1x1_hotel_room_straight_05
v -1.999480 -0.000000 -9.500000
v -1.999480 10.000000 -9.500000
v -9.858881 -0.000000 -9.500000
v -9.858881 10.000000 -9.500000
v -1.999480 -0.000000 -10.100000
v -1.999480 10.000000 -10.100000
v -9.858881 -0.000000 -10.100000
v -9.858881 10.000000 -10.100000
vn -0.0000 -0.0000 1.0000
vn -1.0000 -0.0000 -0.0000
vn -0.0000 -0.0000 -1.0000
vn 1.0000 -0.0000 -0.0000
vn -0.0000 -1.0000 -0.0000
vn -0.0000 1.0000 -0.0000
vt 0.375000 0.000000
vt 0.625000 0.000000
vt 0.625000 0.250000
vt 0.375000 0.250000
vt 0.625000 0.500000
vt 0.375000 0.500000
vt 0.625000 0.750000
vt 0.375000 0.750000
vt 0.625000 1.000000
vt 0.375000 1.000000
vt 0.125000 0.500000
vt 0.125000 0.750000
vt 0.875000 0.500000
vt 0.875000 0.750000
s 0
f 65/113/49 66/114/49 68/115/49 67/116/49
f 67/116/50 68/115/50 72/117/50 71/118/50
f 71/118/51 72/117/51 70/119/51 69/120/51
f 69/120/52 70/119/52 66/121/52 65/122/52
f 67/123/53 71/118/53 69/120/53 65/124/53
f 72/117/54 68/125/54 66/126/54 70/119/54
o UCX_1x1_hotel_room_straight_07
v 1.998704 7.017788 -9.500000
v 1.998704 9.997766 -9.500000
v -1.998704 7.017788 -9.500000
v -1.998704 9.997766 -9.500000
v 1.998704 7.017788 -10.100000
v 1.998704 9.997766 -10.100000
v -1.998704 7.017788 -10.100000
v -1.998704 9.997766 -10.100000
vn -0.0000 -0.0000 1.0000
vn -1.0000 -0.0000 -0.0000
vn -0.0000 -0.0000 -1.0000
vn 1.0000 -0.0000 -0.0000
vn -0.0000 -1.0000 -0.0000
vn -0.0000 1.0000 -0.0000
vt 0.375000 0.000000
vt 0.625000 0.000000
vt 0.625000 0.250000
vt 0.375000 0.250000
vt 0.625000 0.500000
vt 0.375000 0.500000
vt 0.625000 0.750000
vt 0.375000 0.750000
vt 0.625000 1.000000
vt 0.375000 1.000000
vt 0.125000 0.500000
vt 0.125000 0.750000
vt 0.875000 0.500000
vt 0.875000 0.750000
s 0
f 73/127/55 74/128/55 76/129/55 75/130/55
f 75/130/56 76/129/56 80/131/56 79/132/56
f 79/132/57 80/131/57 78/133/57 77/134/57
f 77/134/58 78/133/58 74/135/58 73/136/58
f 75/137/59 79/132/59 77/134/59 73/138/59
f 80/131/60 76/139/60 74/140/60 78/133/60
o 1x1_hotel_room_straight
v -10.000000 -0.100000 10.000000
v -10.000000 0.000000 10.000000
v -10.000000 -0.100000 -10.000000
v -10.000000 0.000000 -10.000000
v 10.000000 -0.100000 10.000000
v 10.000000 0.000000 10.000000
v 10.000000 -0.100000 -10.000000
v 10.000000 0.000000 -10.000000
v 9.999999 9.999999 -9.500003
v -9.999999 9.999999 -9.499996
v 9.999999 0.000000 -9.500004
v -9.999999 0.000000 -9.499997
v 2.100000 7.100000 -9.500000
v -2.100000 7.100000 -9.499999
v 2.100000 0.000000 -9.500000
v -2.100000 0.000000 -9.499999
v 9.999999 9.999999 -10.000004
v -9.999999 9.999999 -9.999996
v 9.999999 0.000000 -10.000004
v -9.999999 0.000000 -9.999997
v 2.100000 7.100000 -10.000001
v -2.100000 7.100000 -9.999999
v 2.100000 0.000000 -10.000001
v -2.100000 0.000000 -9.999999
v -9.499999 9.999999 -9.999999
v -9.500000 9.999999 9.999999
v -9.500000 0.000000 -9.999999
v -9.500000 0.000000 9.999999
v -9.999999 9.999999 -9.999999
v -10.000000 9.999999 9.999999
v -10.000000 0.000000 -9.999999
v -10.000001 0.000000 9.999999
v -9.999999 10.000000 9.500000
v 9.999999 10.000000 9.500000
v -9.999999 0.000000 9.500000
v 9.999999 0.000000 9.500000
v -2.100000 7.100000 9.500000
v 2.100000 7.100000 9.500000
v -2.100000 0.000000 9.500000
v 2.100000 0.000000 9.500000
v -9.999999 9.999999 10.000000
v 9.999999 9.999999 10.000000
v -9.999999 0.000000 10.000000
v 9.999999 0.000000 10.000000
v -2.100000 7.099999 10.000000
v 2.100000 7.099999 10.000000
v -2.100000 0.000000 10.000000
v 2.100000 0.000000 10.000000
v 9.500000 9.999999 9.999999
v 9.499999 9.999999 -9.999999
v 9.500000 0.000000 9.999999
v 9.500000 0.000000 -9.999999
v 10.000000 9.999999 9.999999
v 9.999999 9.999999 -9.999999
v 10.000001 0.000000 9.999999
v 10.000000 0.000000 -9.999999
v -2.400000 -0.000000 10.000000
v -2.400000 7.400001 10.000000
v -2.400000 -0.000000 9.384323
v -2.400000 7.400001 9.384323
v 2.400000 -0.000000 10.000000
v 2.400000 7.400001 10.000000
v 2.400000 -0.000000 9.384323
v 2.400000 7.400001 9.384323
v 2.000000 7.000000 9.478391
v -2.000000 7.000000 9.478391
v -2.000000 -0.000000 9.478391
v 2.000000 -0.000000 9.478391
v -2.000000 7.000000 10.000000
v 2.000000 7.000000 10.000000
v -2.000000 -0.000000 10.000000
v 2.000000 -0.000000 10.000000
v -2.266667 -0.000000 9.385947
v -2.133333 -0.000000 9.385947
v 2.266667 -0.000000 9.385947
v 2.133333 -0.000000 9.385947
v 2.266667 7.266667 9.385947
v 2.133333 7.133335 9.385947
v -2.266667 7.266667 9.385947
v -2.133333 7.133335 9.385947
v -2.333334 -0.000000 9.365391
v 2.333334 -0.000000 9.365391
v 2.333334 7.333334 9.365391
v -2.333334 7.333334 9.365391
v 2.400000 -0.000000 -10.000000
v 2.400000 7.400001 -10.000000
v 2.400000 -0.000000 -9.384324
v 2.400000 7.400001 -9.384324
v -2.400000 -0.000000 -10.000000
v -2.400000 7.400001 -10.000000
v -2.400000 -0.000000 -9.384323
v -2.400000 7.400001 -9.384323
v -2.000000 7.000000 -9.478391
v 2.000000 7.000000 -9.478391
v 2.000000 -0.000000 -9.478391
v -2.000000 -0.000000 -9.478391
v 2.000000 7.000000 -10.000000
v -2.000000 7.000000 -10.000000
v 2.000000 -0.000000 -10.000000
v -2.000000 -0.000000 -10.000000
v 2.266667 -0.000000 -9.385947
v 2.133333 -0.000000 -9.385947
v -2.266667 -0.000000 -9.385947
v -2.133333 -0.000000 -9.385947
v -2.266667 7.266667 -9.385947
v -2.133333 7.133335 -9.385947
v 2.266667 7.266667 -9.385947
v 2.133333 7.133335 -9.385947
v 2.333334 -0.000000 -9.365391
v -2.333334 -0.000000 -9.365391
v -2.333334 7.333334 -9.365391
v 2.333334 7.333334 -9.365391
v -10.000000 9.900001 10.000000
v -10.000000 10.100000 10.000000
v -10.000000 9.900001 -10.000000
v -10.000000 10.100000 -10.000000
v 10.000000 9.900001 10.000000
v 10.000000 10.100000 10.000000
v 10.000000 9.900001 -10.000000
v 10.000000 10.100000 -10.000000
vn -1.0000 -0.0000 -0.0000
vn -0.0000 -0.0000 -1.0000
vn 1.0000 -0.0000 -0.0000
vn -0.0000 -0.0000 1.0000
vn -0.0000 -1.0000 -0.0000
vn -0.0000 1.0000 -0.0000
vn -0.0000 -0.5698 -0.8218
vn -0.0000 -0.2947 -0.9556
vn -0.0000 0.2732 -0.9620
vn -0.2732 -0.0000 -0.9620
vn 0.2947 -0.0000 -0.9556
vn 0.5698 -0.0000 -0.8218
vn -0.5698 -0.0000 -0.8218
vn -0.2947 -0.0000 -0.9556
vn 0.2732 -0.0000 -0.9620
vn -0.0000 -0.5698 0.8218
vn -0.0000 -0.2947 0.9556
vn -0.0000 0.2732 0.9620
vn 0.2732 -0.0000 0.9620
vn -0.2947 -0.0000 0.9556
vn -0.5698 -0.0000 0.8218
vn 0.5698 -0.0000 0.8218
vn 0.2947 -0.0000 0.9556
vn -0.2732 -0.0000 0.9620
vt 0.375000 0.000000
vt 0.625000 0.000000
vt 0.625000 0.250000
vt 0.375000 0.250000
vt 0.625000 0.500000
vt 0.375000 0.500000
vt 0.625000 0.750000
vt 0.375000 0.750000
vt 0.625000 1.000000
vt 0.375000 1.000000
vt 0.028412 0.043766
vt 0.964551 0.043766
vt 0.964551 0.979905
vt 0.028412 0.979905
vt 0.034699 0.030614
vt 0.953736 0.030614
vt 0.953736 0.949652
vt 0.034699 0.949652
vt 0.402009 0.750000
vt 0.010044 0.750000
vt 0.010044 0.250000
vt 0.989956 0.250000
vt 0.989956 0.750000
vt 0.597991 0.750000
vt 0.597991 0.400000
vt 0.402009 0.400000
vt 0.227340 0.000000
vt 0.227340 0.528217
vt 0.000000 0.528217
vt 0.000000 0.000000
vt 0.332198 0.479419
vt 0.332198 0.039239
vt 0.477703 0.039239
vt 0.477703 0.479419
vt 0.250317 0.494092
vt 0.250317 0.024566
vt 0.528286 0.538935
vt 0.528286 0.025391
vt 0.546790 0.032727
vt 0.546790 0.531598
vt 0.507738 0.523438
vt 0.507738 0.024566
vt 0.516767 0.039239
vt 0.516767 0.508765
vt 0.244458 0.007336
vt 0.244458 0.520880
vt 0.015141 0.135921
vt 0.312728 0.135921
vt 0.312728 0.798801
vt 0.015141 0.798801
vt 0.336241 0.141893
vt 0.336241 0.798801
vt 0.699032 0.157406
vt 0.724400 0.163378
vt 0.724400 0.814313
vt 0.699032 0.814313
vt 0.374083 0.157109
vt 0.374083 0.796101
vt 0.354674 0.796101
vt 0.354674 0.145165
vt 0.508900 0.796398
vt 0.399529 0.796398
vt 0.399529 0.157406
vt 0.508900 0.169350
vt 0.699032 0.169350
vt 0.699032 0.796398
vt 0.604485 0.740764
vt 0.392314 0.740764
vt 0.392314 0.041030
vt 0.604485 0.041030
vt 0.726535 0.027702
vt 0.726535 0.740764
vt 0.771303 0.047625
vt 0.791999 0.034889
vt 0.791999 0.728999
vt 0.771303 0.728999
vt 0.754843 0.047694
vt 0.754843 0.780749
vt 0.726535 0.780749
vt 0.726535 0.054358
vt 0.054465 0.015213
vt 0.054465 0.754932
vt 0.028226 0.754932
vt 0.028226 0.021877
vt 0.386548 0.015213
vt 0.386548 0.754932
vt 0.125000 0.500000
vt 0.125000 0.750000
vt 0.875000 0.500000
vt 0.875000 0.750000
s 0
usemtl MAT_hotel_carpet
f 81/141/61 82/142/61 84/143/61 83/144/61
f 83/144/62 84/143/62 88/145/62 87/146/62
f 87/146/63 88/145/63 86/147/63 85/148/63
f 85/148/64 86/147/64 82/149/64 81/150/64
f 83/151/65 87/152/65 85/153/65 81/154/65
f 88/155/66 84/156/66 82/157/66 86/158/66
usemtl MAT_hotel_wall
f 95/159/64 91/160/64 89/161/64 90/162/64 92/163/64 96/164/64 94/165/64 93/166/64
f 103/159/62 101/166/62 102/165/62 104/164/62 100/163/62 98/162/62 97/161/62 99/160/62
f 95/159/61 93/166/61 101/166/61 103/159/61
f 91/160/65 95/159/65 103/159/65 99/160/65
f 89/161/63 91/160/63 99/160/63 97/161/63
f 90/162/66 89/161/66 97/161/66 98/162/66
f 92/163/61 90/162/61 98/162/61 100/163/61
f 96/164/65 92/163/65 100/163/65 104/164/65
f 94/165/63 96/164/63 104/164/63 102/165/63
f 93/166/65 94/165/65 102/165/65 101/166/65
f 105/161/62 107/160/62 111/160/62 109/161/62
f 106/162/66 105/161/66 109/161/66 110/162/66
f 108/163/64 106/162/64 110/162/64 112/163/64
f 119/159/62 115/160/62 113/161/62 114/162/62 116/163/62 120/164/62 118/165/62 117/166/62
f 127/159/64 125/166/64 126/165/64 128/164/64 124/163/64 122/162/64 121/161/64 123/160/64
f 119/159/63 117/166/63 125/166/63 127/159/63
f 115/160/65 119/159/65 127/159/65 123/160/65
f 113/161/61 115/160/61 123/160/61 121/161/61
f 114/162/66 113/161/66 121/161/66 122/162/66
f 116/163/63 114/162/63 122/162/63 124/163/63
f 120/164/65 116/163/65 124/163/65 128/164/65
f 118/165/61 120/164/61 128/164/61 126/165/61
f 117/166/65 118/165/65 126/165/65 125/166/65
f 129/161/64 131/160/64 135/160/64 133/161/64
f 130/162/66 129/161/66 133/161/66 134/162/66
f 132/163/62 130/162/62 134/162/62 136/163/62
f 132/163/61 131/160/61 129/161/61 130/162/61
f 135/160/63 136/163/63 134/162/63 133/161/63
f 111/160/61 112/163/61 110/162/61 109/161/61
f 107/160/63 105/161/63 106/162/63 108/163/63
usemtl MAT_hotel_door_frame
f 144/167/66 140/168/66 138/169/66 142/170/66
f 146/171/65 145/172/65 150/173/65 149/174/65
f 160/175/67 158/176/67 145/172/67 146/171/67
f 164/177/68 163/178/68 157/179/68 159/180/68
f 159/181/62 157/182/62 158/183/62 160/184/62
f 140/168/69 144/167/69 163/185/69 164/186/69
f 138/187/61 140/188/61 139/189/61 137/190/61
f 139/189/70 140/188/70 164/191/70 161/192/70
f 164/193/71 159/194/71 153/195/71 161/196/71
f 160/197/62 154/198/62 153/199/62 159/200/62
f 147/201/72 154/202/72 160/203/72 146/204/72
f 147/201/63 146/204/63 149/205/63 151/206/63
f 148/207/61 152/208/61 150/209/61 145/210/61
f 145/210/73 158/211/73 156/212/73 148/207/73
f 158/213/62 157/214/62 155/215/62 156/216/62
f 163/217/74 162/218/74 155/219/74 157/220/74
f 144/221/75 143/222/75 162/223/75 163/224/75
f 144/221/63 142/225/63 141/226/63 143/222/63
f 137/190/64 151/206/64 149/205/64 138/187/64
f 137/190/65 139/189/65 161/192/65 153/195/65 154/198/65 147/201/65 151/206/65
f 142/170/64 138/187/64 149/174/64 150/173/64
f 141/226/64 142/170/64 150/209/64 152/208/64
f 141/226/65 152/208/65 148/207/65 156/216/65 155/219/65 162/223/65 143/222/65
f 172/167/66 168/168/66 166/169/66 170/170/66
f 174/171/65 173/172/65 178/173/65 177/174/65
f 188/175/76 186/176/76 173/172/76 174/171/76
f 192/177/77 191/178/77 185/179/77 187/180/77
f 187/181/64 185/182/64 186/183/64 188/184/64
f 168/168/78 172/167/78 191/185/78 192/186/78
f 166/187/63 168/188/63 167/189/63 165/190/63
f 167/189/79 168/188/79 192/191/79 189/192/79
f 192/193/80 187/194/80 181/195/80 189/196/80
f 188/197/64 182/198/64 181/199/64 187/200/64
f 175/201/81 182/202/81 188/203/81 174/204/81
f 175/201/61 174/204/61 177/205/61 179/206/61
f 176/207/63 180/208/63 178/209/63 173/210/63
f 173/210/82 186/211/82 184/212/82 176/207/82
f 186/213/64 185/214/64 183/215/64 184/216/64
f 191/217/83 190/218/83 183/219/83 185/220/83
f 172/221/84 171/222/84 190/223/84 191/224/84
f 172/221/61 170/225/61 169/226/61 171/222/61
f 165/190/62 179/206/62 177/205/62 166/187/62
f 165/190/65 167/189/65 189/192/65 181/195/65 182/198/65 175/201/65 179/206/65
f 170/170/62 166/187/62 177/174/62 178/173/62
f 169/226/62 170/170/62 178/209/62 180/208/62
f 169/226/65 180/208/65 176/207/65 184/216/65 183/219/65 190/223/65 171/222/65
usemtl MAT_hotel_ceiling
f 193/141/61 194/142/61 196/143/61 195/144/61
f 195/144/62 196/143/62 200/145/62 199/146/62
f 199/146/63 200/145/63 198/147/63 197/148/63
f 197/148/64 198/147/64 194/149/64 193/150/64
f 195/227/65 199/146/65 197/148/65 193/228/65
f 200/145/66 196/229/66 194/230/66 198/147/66
