# Blender 4.4.0
# www.blender.org
mtllib 1x1_hotel_hallway.mtl
o UCX_1x1_hotel_hallway_x_00
v -20.000000 -0.600000 5.000000
v -20.000000 0.000000 5.000000
v -20.000000 -0.600000 -5.000000
v -20.000000 0.000000 -5.000000
v 20.000000 -0.600000 5.000000
v 20.000000 0.000000 5.000000
v 20.000000 -0.600000 -5.000000
v 20.000000 0.000000 -5.000000
vn -1.0000 -0.0000 -0.0000
vn -0.0000 -0.0000 -1.0000
vn 1.0000 -0.0000 -0.0000
vn -0.0000 -0.0000 1.0000
vn -0.0000 -1.0000 -0.0000
vn -0.0000 1.0000 -0.0000
vt 0.375000 0.000000
vt 0.625000 0.000000
vt 0.625000 0.250000
vt 0.375000 0.250000
vt 0.625000 0.500000
vt 0.375000 0.500000
vt 0.625000 0.750000
vt 0.375000 0.750000
vt 0.625000 1.000000
vt 0.375000 1.000000
vt 0.125000 0.500000
vt 0.125000 0.750000
vt 0.875000 0.500000
vt 0.875000 0.750000
s 0
f 1/1/1 2/2/1 4/3/1 3/4/1
f 3/4/2 4/3/2 8/5/2 7/6/2
f 7/6/3 8/5/3 6/7/3 5/8/3
f 5/8/4 6/7/4 2/9/4 1/10/4
f 3/11/5 7/6/5 5/8/5 1/12/5
f 8/5/6 4/13/6 2/14/6 6/7/6
o UCX_1x1_hotel_hallway_x_01
v -20.099998 0.000000 9.858881
v -20.099998 10.000000 9.858881
v -20.099998 0.000000 1.999480
v -20.099998 10.000000 1.999480
v -19.500000 0.000000 9.858881
v -19.500000 10.000000 9.858881
v -19.500000 0.000000 1.999480
v -19.500000 10.000000 1.999480
vn -1.0000 -0.0000 -0.0000
vn -0.0000 -0.0000 -1.0000
vn 1.0000 -0.0000 -0.0000
vn -0.0000 -0.0000 1.0000
vn -0.0000 -1.0000 -0.0000
vn -0.0000 1.0000 -0.0000
vt 0.375000 0.000000
vt 0.625000 0.000000
vt 0.625000 0.250000
vt 0.375000 0.250000
vt 0.625000 0.500000
vt 0.375000 0.500000
vt 0.625000 0.750000
vt 0.375000 0.750000
vt 0.625000 1.000000
vt 0.375000 1.000000
vt 0.125000 0.500000
vt 0.125000 0.750000
vt 0.875000 0.500000
vt 0.875000 0.750000
s 0
f 9/15/7 10/16/7 12/17/7 11/18/7
f 11/18/8 12/17/8 16/19/8 15/20/8
f 15/20/9 16/19/9 14/21/9 13/22/9
f 13/22/10 14/21/10 10/23/10 9/24/10
f 11/25/11 15/20/11 13/22/11 9/26/11
f 16/19/12 12/27/12 10/28/12 14/21/12
o UCX_1x1_hotel_hallway_x_04
v 19.500000 0.000000 -1.999480
v 19.500000 10.000000 -1.999480
v 19.500000 0.000000 -9.858881
v 19.500000 10.000000 -9.858881
v 20.099998 0.000000 -1.999480
v 20.099998 10.000000 -1.999480
v 20.099998 0.000000 -9.858881
v 20.099998 10.000000 -9.858881
vn -1.0000 -0.0000 -0.0000
vn -0.0000 -0.0000 -1.0000
vn 1.0000 -0.0000 -0.0000
vn -0.0000 -0.0000 1.0000
vn -0.0000 -1.0000 -0.0000
vn -0.0000 1.0000 -0.0000
vt 0.375000 0.000000
vt 0.625000 0.000000
vt 0.625000 0.250000
vt 0.375000 0.250000
vt 0.625000 0.500000
vt 0.375000 0.500000
vt 0.625000 0.750000
vt 0.375000 0.750000
vt 0.625000 1.000000
vt 0.375000 1.000000
vt 0.125000 0.500000
vt 0.125000 0.750000
vt 0.875000 0.500000
vt 0.875000 0.750000
s 0
f 17/29/13 18/30/13 20/31/13 19/32/13
f 19/32/14 20/31/14 24/33/14 23/34/14
f 23/34/15 24/33/15 22/35/15 21/36/15
f 21/36/16 22/35/16 18/37/16 17/38/16
f 19/39/17 23/34/17 21/36/17 17/40/17
f 24/33/18 20/41/18 18/42/18 22/35/18
o UCX_1x1_hotel_hallway_x_05
v 19.500000 7.017788 1.998704
v 19.500000 9.997766 1.998704
v 19.500000 7.017788 -1.998704
v 19.500000 9.997766 -1.998704
v 20.099998 7.017788 1.998704
v 20.099998 9.997766 1.998704
v 20.099998 7.017788 -1.998704
v 20.099998 9.997766 -1.998704
vn -1.0000 -0.0000 -0.0000
vn -0.0000 -0.0000 -1.0000
vn 1.0000 -0.0000 -0.0000
vn -0.0000 -0.0000 1.0000
vn -0.0000 -1.0000 -0.0000
vn -0.0000 1.0000 -0.0000
vt 0.375000 0.000000
vt 0.625000 0.000000
vt 0.625000 0.250000
vt 0.375000 0.250000
vt 0.625000 0.500000
vt 0.375000 0.500000
vt 0.625000 0.750000
vt 0.375000 0.750000
vt 0.625000 1.000000
vt 0.375000 1.000000
vt 0.125000 0.500000
vt 0.125000 0.750000
vt 0.875000 0.500000
vt 0.875000 0.750000
s 0
f 25/43/19 26/44/19 28/45/19 27/46/19
f 27/46/20 28/45/20 32/47/20 31/48/20
f 31/48/21 32/47/21 30/49/21 29/50/21
f 29/50/22 30/49/22 26/51/22 25/52/22
f 27/53/23 31/48/23 29/50/23 25/54/23
f 32/47/24 28/55/24 26/56/24 30/49/24
o UCX_1x1_hotel_hallway_x_06
v 19.500000 0.000000 9.858881
v 19.500000 10.000000 9.858881
v 19.500000 0.000000 1.999480
v 19.500000 10.000000 1.999480
v 20.099998 0.000000 9.858881
v 20.099998 10.000000 9.858881
v 20.099998 0.000000 1.999480
v 20.099998 10.000000 1.999480
vn -1.0000 -0.0000 -0.0000
vn -0.0000 -0.0000 -1.0000
vn 1.0000 -0.0000 -0.0000
vn -0.0000 -0.0000 1.0000
vn -0.0000 -1.0000 -0.0000
vn -0.0000 1.0000 -0.0000
vt 0.375000 0.000000
vt 0.625000 0.000000
vt 0.625000 0.250000
vt 0.375000 0.250000
vt 0.625000 0.500000
vt 0.375000 0.500000
vt 0.625000 0.750000
vt 0.375000 0.750000
vt 0.625000 1.000000
vt 0.375000 1.000000
vt 0.125000 0.500000
vt 0.125000 0.750000
vt 0.875000 0.500000
vt 0.875000 0.750000
s 0
f 33/57/25 34/58/25 36/59/25 35/60/25
f 35/60/26 36/59/26 40/61/26 39/62/26
f 39/62/27 40/61/27 38/63/27 37/64/27
f 37/64/28 38/63/28 34/65/28 33/66/28
f 35/67/29 39/62/29 37/64/29 33/68/29
f 40/61/30 36/69/30 34/70/30 38/63/30
o UCX_1x1_hotel_hallway_x_02
v -20.099998 0.000000 -1.999480
v -20.099998 10.000000 -1.999480
v -20.099998 0.000000 -9.858881
v -20.099998 10.000000 -9.858881
v -19.500000 0.000000 -1.999480
v -19.500000 10.000000 -1.999480
v -19.500000 0.000000 -9.858881
v -19.500000 10.000000 -9.858881
vn -1.0000 -0.0000 -0.0000
vn -0.0000 -0.0000 -1.0000
vn 1.0000 -0.0000 -0.0000
vn -0.0000 -0.0000 1.0000
vn -0.0000 -1.0000 -0.0000
vn -0.0000 1.0000 -0.0000
vt 0.375000 0.000000
vt 0.625000 0.000000
vt 0.625000 0.250000
vt 0.375000 0.250000
vt 0.625000 0.500000
vt 0.375000 0.500000
vt 0.625000 0.750000
vt 0.375000 0.750000
vt 0.625000 1.000000
vt 0.375000 1.000000
vt 0.125000 0.500000
vt 0.125000 0.750000
vt 0.875000 0.500000
vt 0.875000 0.750000
s 0
f 41/71/31 42/72/31 44/73/31 43/74/31
f 43/74/32 44/73/32 48/75/32 47/76/32
f 47/76/33 48/75/33 46/77/33 45/78/33
f 45/78/34 46/77/34 42/79/34 41/80/34
f 43/81/35 47/76/35 45/78/35 41/82/35
f 48/75/36 44/83/36 42/84/36 46/77/36
o UCX_1x1_hotel_hallway_x_03
v -20.099998 7.017788 1.998704
v -20.099998 9.997766 1.998704
v -20.099998 7.017788 -1.998704
v -20.099998 9.997766 -1.998704
v -19.500000 7.017788 1.998704
v -19.500000 9.997766 1.998704
v -19.500000 7.017788 -1.998704
v -19.500000 9.997766 -1.998704
vn -1.0000 -0.0000 -0.0000
vn -0.0000 -0.0000 -1.0000
vn 1.0000 -0.0000 -0.0000
vn -0.0000 -0.0000 1.0000
vn -0.0000 -1.0000 -0.0000
vn -0.0000 1.0000 -0.0000
vt 0.375000 0.000000
vt 0.625000 0.000000
vt 0.625000 0.250000
vt 0.375000 0.250000
vt 0.625000 0.500000
vt 0.375000 0.500000
vt 0.625000 0.750000
vt 0.375000 0.750000
vt 0.625000 1.000000
vt 0.375000 1.000000
vt 0.125000 0.500000
vt 0.125000 0.750000
vt 0.875000 0.500000
vt 0.875000 0.750000
s 0
f 49/85/37 50/86/37 52/87/37 51/88/37
f 51/88/38 52/87/38 56/89/38 55/90/38
f 55/90/39 56/89/39 54/91/39 53/92/39
f 53/92/40 54/91/40 50/93/40 49/94/40
f 51/95/41 55/90/41 53/92/41 49/96/41
f 56/89/42 52/97/42 50/98/42 54/91/42
o UCX_1x1_hotel_hallway_x_09
v -20.000000 9.900000 5.000000
v -20.000000 10.500000 5.000000
v -20.000000 9.900000 -5.000000
v -20.000000 10.500000 -5.000000
v 20.000000 9.900000 5.000000
v 20.000000 10.500000 5.000000
v 20.000000 9.900000 -5.000000
v 20.000000 10.500000 -5.000000
vn -1.0000 -0.0000 -0.0000
vn -0.0000 -0.0000 -1.0000
vn 1.0000 -0.0000 -0.0000
vn -0.0000 -0.0000 1.0000
vn -0.0000 -1.0000 -0.0000
vn -0.0000 1.0000 -0.0000
vt 0.375000 0.000000
vt 0.625000 0.000000
vt 0.625000 0.250000
vt 0.375000 0.250000
vt 0.625000 0.500000
vt 0.375000 0.500000
vt 0.625000 0.750000
vt 0.375000 0.750000
vt 0.625000 1.000000
vt 0.375000 1.000000
vt 0.125000 0.500000
vt 0.125000 0.750000
vt 0.875000 0.500000
vt 0.875000 0.750000
s 0
f 57/99/43 58/100/43 60/101/43 59/102/43
f 59/102/44 60/101/44 64/103/44 63/104/44
f 63/104/45 64/103/45 62/105/45 61/106/45
f 61/106/46 62/105/46 58/107/46 57/108/46
f 59/109/47 63/104/47 61/106/47 57/110/47
f 64/103/48 60/111/48 58/112/48 62/105/48
o UCX_1x1_hotel_hallway_x_07
v 20.000000 0.000000 -5.000001
v 20.000000 10.000000 -5.000001
v -20.000000 0.000000 -5.000000
v -20.000000 10.000000 -5.000000
v 20.000000 0.000000 -5.600001
v 20.000000 10.000000 -5.600001
v -20.000000 0.000000 -5.599999
v -20.000000 10.000000 -5.599999
vn -0.0000 -0.0000 1.0000
vn -1.0000 -0.0000 -0.0000
vn -0.0000 -0.0000 -1.0000
vn 1.0000 -0.0000 -0.0000
vn -0.0000 -1.0000 -0.0000
vn -0.0000 1.0000 -0.0000
vt 0.375000 0.000000
vt 0.625000 0.000000
vt 0.625000 0.250000
vt 0.375000 0.250000
vt 0.625000 0.500000
vt 0.375000 0.500000
vt 0.625000 0.750000
vt 0.375000 0.750000
vt 0.625000 1.000000
vt 0.375000 1.000000
vt 0.125000 0.500000
vt 0.125000 0.750000
vt 0.875000 0.500000
vt 0.875000 0.750000
s 0
f 65/113/49 66/114/49 68/115/49 67/116/49
f 67/116/50 68/115/50 72/117/50 71/118/50
f 71/118/51 72/117/51 70/119/51 69/120/51
f 69/120/52 70/119/52 66/121/52 65/122/52
f 67/123/53 71/118/53 69/120/53 65/124/53
f 72/117/54 68/125/54 66/126/54 70/119/54
o UCX_1x1_hotel_hallway_x_08
v 20.000000 0.000000 5.599999
v 20.000000 10.000000 5.599999
v -20.000000 0.000000 5.600001
v -20.000000 10.000000 5.600001
v 20.000000 0.000000 5.000000
v 20.000000 10.000000 5.000000
v -20.000000 0.000000 5.000001
v -20.000000 10.000000 5.000001
vn -0.0000 -0.0000 1.0000
vn -1.0000 -0.0000 -0.0000
vn -0.0000 -0.0000 -1.0000
vn 1.0000 -0.0000 -0.0000
vn -0.0000 -1.0000 -0.0000
vn -0.0000 1.0000 -0.0000
vt 0.375000 0.000000
vt 0.625000 0.000000
vt 0.625000 0.250000
vt 0.375000 0.250000
vt 0.625000 0.500000
vt 0.375000 0.500000
vt 0.625000 0.750000
vt 0.375000 0.750000
vt 0.625000 1.000000
vt 0.375000 1.000000
vt 0.125000 0.500000
vt 0.125000 0.750000
vt 0.875000 0.500000
vt 0.875000 0.750000
s 0
f 73/127/55 74/128/55 76/129/55 75/130/55
f 75/130/56 76/129/56 80/131/56 79/132/56
f 79/132/57 80/131/57 78/133/57 77/134/57
f 77/134/58 78/133/58 74/135/58 73/136/58
f 75/137/59 79/132/59 77/134/59 73/138/59
f 80/131/60 76/139/60 74/140/60 78/133/60
o 2x1_hotel_hallway
v -20.000000 -0.200000 5.000000
v -20.000000 0.000000 5.000000
v -20.000000 -0.200000 -5.000000
v -20.000000 0.000000 -5.000000
v 20.000000 -0.200000 5.000000
v 20.000000 0.000000 5.000000
v 20.000000 -0.200000 -5.000000
v 20.000000 0.000000 -5.000000
v 19.500000 9.999999 9.999999
v 19.500000 9.999999 -9.999999
v 19.500002 0.000000 9.999999
v 19.500000 0.000000 -9.999999
v 19.500000 7.100000 2.100000
v 19.500000 7.100000 -2.100000
v 19.500000 0.000000 2.100000
v 19.500000 0.000000 -2.100000
v 20.000000 9.999999 9.999999
v 20.000000 9.999999 -9.999999
v 20.000002 0.000000 9.999999
v 20.000000 0.000000 -9.999999
v 20.000000 7.100000 2.100000
v 20.000000 7.100000 -2.100000
v 20.000000 0.000000 2.100000
v 20.000000 0.000000 -2.100000
v -19.999998 9.999999 -5.000000
v 19.999998 9.999999 -5.000000
v -19.999998 0.000000 -5.000000
v 19.999998 0.000000 -5.000000
v -19.999998 9.999999 -5.100000
v 19.999998 9.999999 -5.100000
v -19.999998 0.000000 -5.100000
v 19.999998 0.000000 -5.100000
v 19.999998 9.999999 4.999999
v -19.999998 9.999999 5.000002
v 19.999998 0.000000 4.999998
v -19.999998 0.000000 5.000002
v 19.999998 9.999999 5.099998
v -19.999998 9.999999 5.100002
v 19.999998 0.000000 5.099998
v -19.999998 0.000000 5.100001
v -19.500000 9.999999 -9.999999
v -19.500002 9.999999 9.999999
v -19.500002 0.000000 -9.999999
v -19.500004 0.000000 9.999999
v -19.500002 7.100000 -2.100000
v -19.500002 7.100000 2.100000
v -19.500002 0.000000 -2.100000
v -19.500002 0.000000 2.100000
v -19.999996 9.999999 -9.999999
v -19.999996 9.999999 9.999999
v -19.999996 0.000000 -9.999999
v -19.999996 0.000000 9.999999
v -19.999996 7.100000 -2.100000
v -19.999996 7.100000 2.100000
v -19.999996 0.000000 -2.100000
v -19.999996 0.000000 2.100000
v -20.000000 -0.000000 -2.400000
v -20.000000 7.400001 -2.400000
v -19.384319 -0.000000 -2.400000
v -19.384319 7.400001 -2.400000
v -20.000000 -0.000000 2.400000
v -20.000000 7.400001 2.400000
v -19.384319 -0.000000 2.400000
v -19.384319 7.400001 2.400000
v -19.478388 7.000000 2.000000
v -19.478388 7.000000 -2.000000
v -19.478388 -0.000000 -2.000000
v -19.478388 -0.000000 2.000000
v -20.000000 7.000000 -2.000000
v -20.000000 7.000000 2.000000
v -20.000000 -0.000000 -2.000000
v -20.000000 -0.000000 2.000000
v -19.385944 -0.000000 -2.266667
v -19.385944 -0.000000 -2.133333
v -19.385944 -0.000000 2.266667
v -19.385944 -0.000000 2.133333
v -19.385944 7.266667 2.266667
v -19.385944 7.133335 2.133333
v -19.385944 7.266667 -2.266667
v -19.385944 7.133335 -2.133333
v -19.365387 -0.000000 -2.333334
v -19.365387 -0.000000 2.333334
v -19.365387 7.333334 2.333334
v -19.365387 7.333334 -2.333334
v 20.000000 -0.000000 2.400000
v 20.000000 7.400001 2.400000
v 19.384319 -0.000000 2.400000
v 19.384319 7.400001 2.400000
v 20.000000 -0.000000 -2.400000
v 20.000000 7.400001 -2.400000
v 19.384319 -0.000000 -2.400000
v 19.384319 7.400001 -2.400000
v 19.478388 7.000000 -2.000000
v 19.478388 7.000000 2.000000
v 19.478388 -0.000000 2.000000
v 19.478388 -0.000000 -2.000000
v 20.000000 7.000000 2.000000
v 20.000000 7.000000 -2.000000
v 20.000000 -0.000000 2.000000
v 20.000000 -0.000000 -2.000000
v 19.385944 -0.000000 2.266667
v 19.385944 -0.000000 2.133333
v 19.385944 -0.000000 -2.266667
v 19.385944 -0.000000 -2.133333
v 19.385944 7.266667 -2.266667
v 19.385944 7.133335 -2.133333
v 19.385944 7.266667 2.266667
v 19.385944 7.133335 2.133333
v 19.365387 -0.000000 2.333334
v 19.365387 -0.000000 -2.333334
v 19.365387 7.333334 -2.333334
v 19.365387 7.333334 2.333334
v -20.000000 9.900001 5.000000
v -20.000000 10.100000 5.000000
v -20.000000 9.900001 -5.000000
v -20.000000 10.100000 -5.000000
v 20.000000 9.900001 5.000000
v 20.000000 10.100000 5.000000
v 20.000000 9.900001 -5.000000
v 20.000000 10.100000 -5.000000
vn -1.0000 -0.0000 -0.0000
vn -0.0000 -0.0000 -1.0000
vn 1.0000 -0.0000 -0.0000
vn -0.0000 -0.0000 1.0000
vn -0.0000 -1.0000 -0.0000
vn -0.0000 1.0000 -0.0000
vn 0.8218 -0.5698 -0.0000
vn 0.9556 -0.2947 -0.0000
vn 0.9620 0.2732 -0.0000
vn 0.9620 -0.0000 -0.2732
vn 0.9556 -0.0000 0.2946
vn 0.8218 -0.0000 0.5698
vn 0.8218 -0.0000 -0.5698
vn 0.9556 -0.0000 -0.2946
vn 0.9620 -0.0000 0.2732
vn -0.8218 -0.5698 -0.0000
vn -0.9556 -0.2947 -0.0000
vn -0.9620 0.2732 -0.0000
vn -0.9620 -0.0000 0.2732
vn -0.9556 -0.0000 -0.2946
vn -0.8218 -0.0000 -0.5698
vn -0.8218 -0.0000 0.5698
vn -0.9556 -0.0000 0.2946
vn -0.9620 -0.0000 -0.2732
vt 0.375000 0.000000
vt 0.625000 0.000000
vt 0.625000 0.250000
vt 0.375000 0.250000
vt 0.625000 0.500000
vt 0.375000 0.500000
vt 0.625000 0.750000
vt 0.375000 0.750000
vt 0.625000 1.000000
vt 0.375000 1.000000
vt 0.125000 0.500000
vt 0.125000 0.750000
vt 0.017973 0.500000
vt 0.875000 0.500000
vt 0.875000 0.750000
vt 0.017973 0.750000
vt 0.400000 1.000000
vt 0.000000 1.000000
vt 0.000000 0.000000
vt 1.000000 0.000000
vt 1.000000 1.000000
vt 0.600000 1.000000
vt 0.600000 0.434766
vt 0.400000 0.434766
vt 0.400000 0.300000
vt 0.600000 0.300000
vt 0.476562 0.000000
vt 0.478516 0.978516
vt 0.000000 0.982422
vt 0.467501 0.984030
vt 0.464400 0.016373
vt 0.004844 0.019473
vt 0.004844 0.984030
vt 0.600000 0.434766
vt 0.400000 0.434766
vt 0.875000 0.511108
vt 0.625000 0.511108
vt 0.625000 0.548608
vt 0.875000 0.548608
vt 0.625000 0.242595
vt 0.625000 0.507405
vt 0.625000 0.238892
vt 0.625000 0.248149
vt 0.625000 0.501851
vt 0.625000 0.503703
vt 0.625000 0.246297
vt 0.921875 0.500000
vt 0.921875 0.750000
s 0
usemtl MAT_hotel_carpet
f 81/141/61 82/142/61 84/143/61 83/144/61
f 83/144/62 84/143/62 88/145/62 87/146/62
f 87/146/63 88/145/63 86/147/63 85/148/63
f 85/148/64 86/147/64 82/149/64 81/150/64
f 83/151/65 87/146/65 85/148/65 81/152/65
f 88/153/66 84/154/66 82/155/66 86/156/66
usemtl MAT_hotel_wall
f 95/157/61 91/158/61 89/159/61 90/160/61 92/161/61 96/162/61 94/163/61 93/164/61
f 103/157/63 101/165/63 102/166/63 104/162/63 100/161/63 98/160/63 97/159/63 99/158/63
f 95/157/62 93/165/62 101/165/62 103/157/62
f 91/158/65 95/157/65 103/157/65 99/158/65
f 89/159/64 91/158/64 99/158/64 97/159/64
f 90/160/66 89/159/66 97/159/66 98/160/66
f 92/161/62 90/160/62 98/160/62 100/161/62
f 96/162/65 92/161/65 100/161/65 104/162/65
f 94/166/64 96/162/64 104/162/64 102/166/64
f 93/165/65 94/166/65 102/166/65 101/165/65
f 107/167/64 108/168/64 106/169/64 105/159/64
f 111/159/62 109/159/62 110/159/62 112/159/62
f 107/159/61 105/159/61 109/159/61 111/159/61
f 105/159/66 106/159/66 110/159/66 109/159/66
f 106/159/63 108/159/63 112/159/63 110/159/63
f 108/159/65 107/159/65 111/159/65 112/159/65
f 115/170/62 116/171/62 114/172/62 113/173/62
f 119/159/64 117/159/64 118/159/64 120/159/64
f 115/159/63 113/159/63 117/159/63 119/159/63
f 113/159/66 114/159/66 118/159/66 117/159/66
f 114/159/61 116/159/61 120/159/61 118/159/61
f 116/159/65 115/159/65 119/159/65 120/159/65
f 127/157/63 123/158/63 121/159/63 122/160/63 124/161/63 128/162/63 126/174/63 125/175/63
f 135/157/61 133/165/61 134/166/61 136/162/61 132/161/61 130/160/61 129/159/61 131/158/61
f 127/157/64 125/165/64 133/165/64 135/157/64
f 123/158/65 127/157/65 135/157/65 131/158/65
f 121/159/62 123/158/62 131/158/62 129/159/62
f 122/160/66 121/159/66 129/159/66 130/160/66
f 124/161/64 122/160/64 130/160/64 132/161/64
f 128/162/65 124/161/65 132/161/65 136/162/65
f 126/166/62 128/162/62 136/162/62 134/166/62
f 125/165/65 126/166/65 134/166/65 133/165/65
usemtl MAT_hotel_door_frame
f 144/145/66 140/154/66 138/155/66 142/147/66
f 146/176/65 145/177/65 150/178/65 149/179/65
f 160/180/67 158/181/67 145/177/67 146/182/67
f 164/183/68 163/184/68 157/185/68 159/186/68
f 159/186/63 157/185/63 158/181/63 160/180/63
f 140/143/69 144/145/69 163/184/69 164/183/69
f 138/155/62 140/154/62 139/159/62 137/159/62
f 139/159/70 140/143/70 164/183/70 161/159/70
f 164/183/71 159/186/71 153/159/71 161/159/71
f 160/180/63 154/159/63 153/159/63 159/186/63
f 147/159/72 154/159/72 160/180/72 146/182/72
f 147/159/64 146/176/64 149/179/64 151/159/64
f 148/159/62 152/159/62 150/178/62 145/177/62
f 145/177/73 158/181/73 156/159/73 148/159/73
f 158/181/63 157/185/63 155/159/63 156/159/63
f 163/184/74 162/159/74 155/159/74 157/185/74
f 144/145/75 143/159/75 162/159/75 163/184/75
f 144/145/64 142/147/64 141/159/64 143/159/64
f 172/145/66 168/154/66 166/155/66 170/147/66
f 174/176/65 173/177/65 178/178/65 177/179/65
f 188/180/76 186/181/76 173/177/76 174/182/76
f 192/183/77 191/184/77 185/185/77 187/186/77
f 187/186/61 185/185/61 186/181/61 188/180/61
f 168/143/78 172/145/78 191/184/78 192/183/78
f 166/155/64 168/154/64 167/159/64 165/159/64
f 167/159/79 168/143/79 192/183/79 189/159/79
f 192/183/80 187/186/80 181/159/80 189/159/80
f 188/180/61 182/159/61 181/159/61 187/186/61
f 175/159/81 182/159/81 188/180/81 174/182/81
f 175/159/62 174/176/62 177/179/62 179/159/62
f 176/159/64 180/159/64 178/178/64 173/177/64
f 173/177/82 186/181/82 184/159/82 176/159/82
f 186/181/61 185/185/61 183/159/61 184/159/61
f 191/184/83 190/159/83 183/159/83 185/185/83
f 172/145/84 171/159/84 190/159/84 191/184/84
f 172/145/62 170/147/62 169/159/62 171/159/62
f 142/147/61 138/155/61 149/179/61 150/178/61
f 137/159/61 151/159/61 149/179/61 138/155/61
f 141/159/61 142/147/61 150/178/61 152/159/61
f 141/159/65 152/159/65 148/159/65 156/159/65 155/159/65 162/159/65 143/159/65
f 170/147/63 166/155/63 177/179/63 178/178/63
f 165/159/63 179/159/63 177/179/63 166/155/63
f 169/159/63 170/147/63 178/178/63 180/159/63
f 165/159/65 167/159/65 189/159/65 181/159/65 182/159/65 175/159/65 179/159/65
f 169/159/65 180/159/65 176/159/65 184/159/65 183/159/65 190/159/65 171/159/65
usemtl MAT_hotel_ceiling
f 193/141/61 194/142/61 196/143/61 195/144/61
f 195/144/62 196/143/62 200/145/62 199/146/62
f 199/146/63 200/145/63 198/147/63 197/148/63
f 197/148/64 198/147/64 194/149/64 193/150/64
f 195/151/65 199/187/65 197/188/65 193/152/65
f 200/145/66 196/154/66 194/155/66 198/147/66
