# Blender 4.4.0
# www.blender.org
mtllib 1x1_hotel_room_thick_carpet.mtl
o Cube.018
v -10.000000 -0.300000 10.000000
v -10.000000 0.100000 10.000000
v -10.000000 -0.300000 -10.000000
v -10.000000 0.100000 -10.000000
v 10.000000 -0.300000 10.000000
v 10.000000 0.100000 10.000000
v 10.000000 -0.300000 -10.000000
v 10.000000 0.100000 -10.000000
v 9.990000 9.999999 10.000008
v 9.990000 9.999999 -9.999992
v 9.990001 0.000000 10.000008
v 9.990000 0.000000 -9.999992
v 9.990000 7.000000 2.000007
v 9.990000 7.000000 -1.999993
v 9.990001 0.000000 2.000007
v 9.990000 0.000000 -1.999993
v 9.999999 9.999999 -9.989992
v -9.999999 9.999999 -9.989994
v 9.999999 0.000000 -9.989993
v -9.999999 0.000000 -9.989995
v 2.000000 7.000000 -9.989994
v -2.000000 7.000000 -9.989994
v 2.000000 0.000000 -9.989994
v -2.000000 0.000000 -9.989994
v -9.990000 9.999999 -9.999992
v -9.990000 9.999999 10.000008
v -9.990000 0.000000 -9.999992
v -9.990001 0.000000 10.000008
v -9.990000 7.000000 -1.999993
v -9.990000 7.000000 2.000007
v -9.990000 0.000000 -1.999993
v -9.990001 0.000000 2.000007
v -9.999999 9.999999 9.990006
v 9.999999 9.999999 9.990006
v -9.999999 0.000000 9.990006
v 9.999999 0.000000 9.990006
v -2.000000 7.000000 9.990006
v 2.000000 7.000000 9.990006
v -2.000000 0.000000 9.990006
v 2.000000 0.000000 9.990006
v 10.000000 -0.000000 2.400007
v 10.000000 7.400001 2.400007
v 9.739491 -0.000000 2.400007
v 9.739491 7.400001 2.400007
v 10.000000 -0.000000 -2.399993
v 10.000000 7.400001 -2.399993
v 9.739490 -0.000000 -2.399993
v 9.739490 7.400001 -2.399993
v 9.833557 7.000000 -1.999993
v 9.833557 7.000000 2.000007
v 9.833557 -0.000000 2.000007
v 9.833557 -0.000000 -1.999993
v 10.000000 7.000000 2.000007
v 10.000000 7.000000 -1.999993
v 10.000000 -0.000000 2.000007
v 10.000000 -0.000000 -1.999993
v 9.741114 -0.000000 2.266674
v 9.741114 -0.000000 2.133341
v 9.741114 -0.000000 -2.266660
v 9.741114 -0.000000 -2.133326
v 9.741114 7.266667 -2.266660
v 9.741114 7.133335 -2.133326
v 9.741114 7.266667 2.266674
v 9.741114 7.133335 2.133341
v 9.720556 -0.000000 2.333341
v 9.720556 -0.000000 -2.333327
v 9.720556 7.333334 -2.333327
v 9.720556 7.333334 2.333341
v 2.400000 -0.000000 -9.999995
v 2.400000 7.400001 -9.999995
v 2.400000 -0.000000 -9.739485
v 2.400000 7.400001 -9.739485
v -2.400000 -0.000000 -9.999995
v -2.400000 7.400001 -9.999995
v -2.400000 -0.000000 -9.739486
v -2.400000 7.400001 -9.739486
v -2.000000 7.000000 -9.833552
v 2.000000 7.000000 -9.833552
v 2.000000 -0.000000 -9.833552
v -2.000000 -0.000000 -9.833552
v 2.000000 7.000000 -9.999995
v -2.000000 7.000000 -9.999995
v 2.000000 -0.000000 -9.999995
v -2.000000 -0.000000 -9.999995
v 2.266667 -0.000000 -9.741109
v 2.133333 -0.000000 -9.741109
v -2.266667 -0.000000 -9.741109
v -2.133333 -0.000000 -9.741109
v -2.266667 7.266667 -9.741109
v -2.133333 7.133335 -9.741109
v 2.266667 7.266667 -9.741109
v 2.133333 7.133335 -9.741109
v 2.333334 -0.000000 -9.720552
v -2.333334 -0.000000 -9.720552
v -2.333334 7.333334 -9.720552
v 2.333334 7.333334 -9.720552
v -2.400000 -0.000000 10.000008
v -2.400000 7.400001 10.000008
v -2.400000 -0.000000 9.739496
v -2.400000 7.400001 9.739496
v 2.400000 -0.000000 10.000008
v 2.400000 7.400001 10.000008
v 2.400000 -0.000000 9.739496
v 2.400000 7.400001 9.739496
v 2.000000 7.000000 9.833564
v -2.000000 7.000000 9.833564
v -2.000000 -0.000000 9.833564
v 2.000000 -0.000000 9.833564
v -2.000000 7.000000 10.000008
v 2.000000 7.000000 10.000008
v -2.000000 -0.000000 10.000008
v 2.000000 -0.000000 10.000008
v -2.266667 -0.000000 9.741121
v -2.133333 -0.000000 9.741121
v 2.266667 -0.000000 9.741121
v 2.133333 -0.000000 9.741121
v 2.266667 7.266667 9.741121
v 2.133333 7.133335 9.741121
v -2.266667 7.266667 9.741121
v -2.133333 7.133335 9.741121
v -2.333334 -0.000000 9.720564
v 2.333334 -0.000000 9.720564
v 2.333334 7.333334 9.720564
v -2.333334 7.333334 9.720564
v -10.000000 -0.000000 -2.399993
v -10.000000 7.400001 -2.399993
v -9.739490 -0.000000 -2.399993
v -9.739490 7.400001 -2.399993
v -10.000000 -0.000000 2.400007
v -10.000000 7.400001 2.400007
v -9.739491 -0.000000 2.400007
v -9.739491 7.400001 2.400007
v -9.833557 7.000000 2.000007
v -9.833557 7.000000 -1.999993
v -9.833557 -0.000000 -1.999993
v -9.833557 -0.000000 2.000007
v -10.000000 7.000000 -1.999993
v -10.000000 7.000000 2.000007
v -10.000000 -0.000000 -1.999993
v -10.000000 -0.000000 2.000007
v -9.741114 -0.000000 -2.266660
v -9.741114 -0.000000 -2.133326
v -9.741114 -0.000000 2.266674
v -9.741114 -0.000000 2.133341
v -9.741114 7.266667 2.266674
v -9.741114 7.133335 2.133341
v -9.741114 7.266667 -2.266660
v -9.741114 7.133335 -2.133326
v -9.720556 -0.000000 -2.333327
v -9.720556 -0.000000 2.333341
v -9.720556 7.333334 2.333341
v -9.720556 7.333334 -2.333327
vn -1.0000 -0.0000 -0.0000
vn -0.0000 -0.0000 -1.0000
vn 1.0000 -0.0000 -0.0000
vn -0.0000 -0.0000 1.0000
vn -0.0000 -1.0000 -0.0000
vn -0.0000 1.0000 -0.0000
vn -0.8218 -0.5698 -0.0000
vn -0.9556 -0.2947 -0.0000
vn -0.9620 0.2732 -0.0000
vn -0.9620 -0.0000 0.2732
vn -0.9556 -0.0000 -0.2947
vn -0.8218 -0.0000 -0.5698
vn -0.8218 -0.0000 0.5698
vn -0.9556 -0.0000 0.2947
vn -0.9620 -0.0000 -0.2732
vn -0.0000 -0.5698 0.8218
vn -0.0000 -0.2947 0.9556
vn -0.0000 0.2732 0.9620
vn 0.2732 -0.0000 0.9620
vn -0.2947 -0.0000 0.9556
vn -0.5698 -0.0000 0.8218
vn 0.5698 -0.0000 0.8218
vn 0.2947 -0.0000 0.9556
vn -0.2732 -0.0000 0.9620
vn -0.0000 -0.5698 -0.8218
vn -0.0000 -0.2947 -0.9556
vn -0.0000 0.2732 -0.9620
vn -0.2732 -0.0000 -0.9620
vn 0.2947 -0.0000 -0.9556
vn 0.5698 -0.0000 -0.8218
vn -0.5698 -0.0000 -0.8218
vn -0.2947 -0.0000 -0.9556
vn 0.2732 -0.0000 -0.9620
vn 0.8218 -0.5698 -0.0000
vn 0.9556 -0.2947 -0.0000
vn 0.9620 0.2732 -0.0000
vn 0.9620 -0.0000 -0.2732
vn 0.9556 -0.0000 0.2947
vn 0.8218 -0.0000 0.5698
vn 0.8218 -0.0000 -0.5698
vn 0.9556 -0.0000 -0.2947
vn 0.9620 -0.0000 0.2732
vt 0.375000 0.000000
vt 0.625000 0.000000
vt 0.625000 0.250000
vt 0.375000 0.250000
vt 0.625000 0.500000
vt 0.375000 0.500000
vt 0.625000 0.750000
vt 0.375000 0.750000
vt 0.625000 1.000000
vt 0.375000 1.000000
vt 0.125000 0.500000
vt 0.125000 0.750000
vt 0.875000 0.500000
vt 0.875000 0.750000
vt 0.400000 1.000000
vt 0.000000 1.000000
vt 0.000000 0.000000
vt 1.000000 0.000000
vt 1.000000 1.000000
vt 0.600000 1.000000
vt 0.600000 0.300000
vt 0.400000 0.300000
vt 0.875000 0.511108
vt 0.625000 0.511108
vt 0.625000 0.548608
vt 0.875000 0.548608
vt 0.625000 0.242595
vt 0.625000 0.507405
vt 0.625000 0.238892
vt 0.625000 0.248149
vt 0.625000 0.501851
vt 0.625000 0.503703
vt 0.625000 0.246297
s 0
usemtl MAT_hotel_carpet
f 1/1/1 2/2/1 4/3/1 3/4/1
f 3/4/2 4/3/2 8/5/2 7/6/2
f 7/6/3 8/5/3 6/7/3 5/8/3
f 5/8/4 6/7/4 2/9/4 1/10/4
f 3/11/5 7/6/5 5/8/5 1/12/5
f 8/5/6 4/13/6 2/14/6 6/7/6
usemtl MAT_hotel_wall
f 15/15/1 11/16/1 9/17/1 10/18/1 12/19/1 16/20/1 14/21/1 13/22/1
f 23/15/4 19/16/4 17/17/4 18/18/4 20/19/4 24/20/4 22/21/4 21/22/4
f 31/15/3 27/16/3 25/17/3 26/18/3 28/19/3 32/20/3 30/21/3 29/22/3
f 39/15/2 35/16/2 33/17/2 34/18/2 36/19/2 40/20/2 38/21/2 37/22/2
usemtl MAT_hotel_door_frame
f 48/5/6 44/13/6 42/14/6 46/7/6
f 50/23/5 49/24/5 54/25/5 53/26/5
f 64/27/7 62/28/7 49/24/7 50/29/7
f 68/30/8 67/31/8 61/32/8 63/33/8
f 63/33/1 61/32/1 62/28/1 64/27/1
f 44/3/9 48/5/9 67/31/9 68/30/9
f 42/14/4 44/13/4 43/17/4 41/17/4
f 43/17/10 44/3/10 68/30/10 65/17/10
f 68/30/11 63/33/11 57/17/11 65/17/11
f 64/27/1 58/17/1 57/17/1 63/33/1
f 51/17/12 58/17/12 64/27/12 50/29/12
f 51/17/2 50/23/2 53/26/2 55/17/2
f 52/17/4 56/17/4 54/25/4 49/24/4
f 49/24/13 62/28/13 60/17/13 52/17/13
f 62/28/1 61/32/1 59/17/1 60/17/1
f 67/31/14 66/17/14 59/17/14 61/32/14
f 48/5/15 47/17/15 66/17/15 67/31/15
f 48/5/2 46/7/2 45/17/2 47/17/2
f 76/5/6 72/13/6 70/14/6 74/7/6
f 78/23/5 77/24/5 82/25/5 81/26/5
f 92/27/16 90/28/16 77/24/16 78/29/16
f 96/30/17 95/31/17 89/32/17 91/33/17
f 91/33/4 89/32/4 90/28/4 92/27/4
f 72/3/18 76/5/18 95/31/18 96/30/18
f 70/14/3 72/13/3 71/17/3 69/17/3
f 71/17/19 72/3/19 96/30/19 93/17/19
f 96/30/20 91/33/20 85/17/20 93/17/20
f 92/27/4 86/17/4 85/17/4 91/33/4
f 79/17/21 86/17/21 92/27/21 78/29/21
f 79/17/1 78/23/1 81/26/1 83/17/1
f 80/17/3 84/17/3 82/25/3 77/24/3
f 77/24/22 90/28/22 88/17/22 80/17/22
f 90/28/4 89/32/4 87/17/4 88/17/4
f 95/31/23 94/17/23 87/17/23 89/32/23
f 76/5/24 75/17/24 94/17/24 95/31/24
f 76/5/1 74/7/1 73/17/1 75/17/1
f 104/5/6 100/13/6 98/14/6 102/7/6
f 106/23/5 105/24/5 110/25/5 109/26/5
f 120/27/25 118/28/25 105/24/25 106/29/25
f 124/30/26 123/31/26 117/32/26 119/33/26
f 119/33/2 117/32/2 118/28/2 120/27/2
f 100/3/27 104/5/27 123/31/27 124/30/27
f 98/14/1 100/13/1 99/17/1 97/17/1
f 99/17/28 100/3/28 124/30/28 121/17/28
f 124/30/29 119/33/29 113/17/29 121/17/29
f 120/27/2 114/17/2 113/17/2 119/33/2
f 107/17/30 114/17/30 120/27/30 106/29/30
f 107/17/3 106/23/3 109/26/3 111/17/3
f 108/17/1 112/17/1 110/25/1 105/24/1
f 105/24/31 118/28/31 116/17/31 108/17/31
f 118/28/2 117/32/2 115/17/2 116/17/2
f 123/31/32 122/17/32 115/17/32 117/32/32
f 104/5/33 103/17/33 122/17/33 123/31/33
f 104/5/3 102/7/3 101/17/3 103/17/3
f 132/5/6 128/13/6 126/14/6 130/7/6
f 134/23/5 133/24/5 138/25/5 137/26/5
f 148/27/34 146/28/34 133/24/34 134/29/34
f 152/30/35 151/31/35 145/32/35 147/33/35
f 147/33/3 145/32/3 146/28/3 148/27/3
f 128/3/36 132/5/36 151/31/36 152/30/36
f 126/14/2 128/13/2 127/17/2 125/17/2
f 127/17/37 128/3/37 152/30/37 149/17/37
f 152/30/38 147/33/38 141/17/38 149/17/38
f 148/27/3 142/17/3 141/17/3 147/33/3
f 135/17/39 142/17/39 148/27/39 134/29/39
f 135/17/4 134/23/4 137/26/4 139/17/4
f 136/17/2 140/17/2 138/25/2 133/24/2
f 133/24/40 146/28/40 144/17/40 136/17/40
f 146/28/3 145/32/3 143/17/3 144/17/3
f 151/31/41 150/17/41 143/17/41 145/32/41
f 132/5/42 131/17/42 150/17/42 151/31/42
f 132/5/4 130/7/4 129/17/4 131/17/4
l 41 55
l 45 56
l 69 83
l 73 84
l 97 111
l 101 112
l 125 139
l 129 140
