# Blender 4.4.3
# www.blender.org
mtllib A_key.mtl
o A_key
v -8.509068 0.948978 1.723656
v -8.509068 -0.948978 1.723656
v -8.509068 1.148556 1.723656
v -8.572324 0.948978 1.723656
v -8.761119 0.970033 1.685413
v -8.705822 0.955145 1.712455
v -8.761119 1.127500 1.685413
v -8.572324 1.148556 1.723656
v -8.705822 1.142389 1.712455
v 8.509069 0.948978 0.808154
v 8.509069 -0.948978 0.808154
v -0.988946 -0.948978 0.808154
v -0.988946 -0.948978 1.723656
v -0.988946 0.948978 1.723656
v 8.509069 1.148556 0.808154
v -0.988946 1.148556 1.723656
v -0.988946 1.148556 0.808154
v -8.509068 0.948978 -1.723656
v -8.509068 -0.948978 -1.723656
v -8.509068 1.148556 -1.723656
v -8.572323 0.948978 -1.723656
v -8.761118 0.970033 -1.685412
v -8.705821 0.955145 -1.712455
v -8.761118 1.127500 -1.685412
v -8.572323 1.148556 -1.723656
v -8.705821 1.142389 -1.712455
v 8.509069 0.948978 -0.808154
v 8.509069 -0.948978 -0.808154
v -0.988946 -0.948978 -0.808154
v -0.988946 -0.948978 -1.723656
v -0.988946 0.948978 -1.723656
v 8.509069 1.148556 -0.808154
v -0.988946 1.148556 -1.723656
v -0.988946 1.148556 -0.808154
v -7.945555 1.166919 -0.892038
v -7.945555 1.166919 -0.892038
v -7.945555 1.166919 0.851473
v -6.266377 1.166919 -0.892038
v -6.266377 1.166919 0.851473
vn -0.0000 -0.0000 1.0000
vn -0.0836 -0.0000 0.9965
vn -0.4393 -0.0000 0.8983
vn 1.0000 -0.0000 -0.0000
vn -0.0000 -0.0000 -1.0000
vn -0.0836 -0.0000 -0.9965
vn -0.4393 -0.0000 -0.8983
vn -0.0000 1.0000 -0.0000
vn -0.0461 0.9989 -0.0000
vn -0.2600 0.9656 -0.0000
vn -1.0000 -0.0000 -0.0000
vn -0.2600 -0.9656 -0.0000
vn -0.0461 -0.9989 -0.0000
vn -0.0000 -1.0000 -0.0000
vt 0.625000 0.389528
vt 0.625000 0.500000
vt 0.375000 0.500000
vt 0.375000 0.389528
vt 0.625000 0.500406
vt 0.625000 0.502773
vt 0.539126 0.100028
vt 0.524215 0.100028
vt 0.382422 0.100028
vt 0.382422 0.000000
vt 0.539126 0.000000
vt 0.539126 0.750449
vt 0.539126 1.000000
vt 0.382422 1.000000
vt 0.382422 0.750449
vt 0.524215 0.750449
vt 0.387787 0.909170
vt 0.656013 0.932328
vt 0.657243 0.604489
vt 0.656990 0.127191
vt 0.394917 0.133606
vt 0.389018 0.594279
vt 0.000000 0.000000
s 0
usemtl MAT_piano_key.004
f 14/1/1 1/2/1 2/3/1 13/4/1
f 3/2/1 1/2/1 14/1/1 16/1/1
f 1/2/1 3/2/1 8/2/1 4/2/1
f 4/2/2 8/2/2 9/5/2 6/5/2
f 6/5/3 9/5/3 7/6/3 5/6/3
f 16/7/4 14/8/4 13/9/4 12/10/4 17/11/4
f 15/12/1 17/13/1 12/14/1 11/15/1 10/16/1
f 31/1/5 30/4/5 19/3/5 18/2/5
f 20/2/5 33/1/5 31/1/5 18/2/5
f 18/2/5 21/2/5 25/2/5 20/2/5
f 21/2/6 23/5/6 26/5/6 25/2/6
f 23/5/7 22/6/7 24/6/7 26/5/7
f 33/7/4 34/11/4 29/10/4 30/9/4 31/8/4
f 32/12/5 27/16/5 28/15/5 29/14/5 34/13/5
f 8/2/8 3/2/8 20/2/8 25/2/8
f 9/5/9 8/2/9 25/2/9 26/5/9
f 9/5/10 26/5/10 24/6/10 7/6/10
f 7/6/11 24/6/11 22/6/11 5/6/11
f 6/5/12 5/6/12 22/6/12 23/5/12
f 6/5/13 23/5/13 21/2/13 4/2/13
f 4/2/14 21/2/14 18/2/14 1/2/14
f 2/3/11 1/2/11 18/2/11 19/3/11
f 2/3/14 19/3/14 30/4/14 29/10/14 28/15/14 11/15/14 12/14/14 13/9/14
f 15/12/4 10/16/4 27/16/4 32/12/4
f 11/15/4 28/15/4 27/16/4 10/16/4
f 15/17/8 32/17/8 34/18/8 33/19/8 20/20/8 3/20/8 16/21/8 17/22/8
usemtl MAT_key_symbol.004
f 37/23/8 39/23/8 38/23/8 36/23/8
l 36 35
o UCX_piano_key
v -8.747870 -0.939475 1.715525
v -8.747870 1.145082 1.715525
v -8.747870 -0.939475 -1.715525
v -8.747870 1.145082 -1.715525
v 8.501142 -0.939475 1.715525
v 8.501142 1.145082 1.715525
v 8.501142 -0.939475 -1.715525
v 8.501142 1.145082 -1.715525
vn -1.0000 -0.0000 -0.0000
vn -0.0000 -0.0000 -1.0000
vn 1.0000 -0.0000 -0.0000
vn -0.0000 -0.0000 1.0000
vn -0.0000 -1.0000 -0.0000
vn -0.0000 1.0000 -0.0000
vt 0.375000 0.000000
vt 0.625000 0.000000
vt 0.625000 0.250000
vt 0.375000 0.250000
vt 0.625000 0.500000
vt 0.375000 0.500000
vt 0.625000 0.750000
vt 0.375000 0.750000
vt 0.625000 1.000000
vt 0.375000 1.000000
vt 0.125000 0.500000
vt 0.125000 0.750000
vt 0.875000 0.500000
vt 0.875000 0.750000
s 0
f 40/24/15 41/25/15 43/26/15 42/27/15
f 42/27/16 43/26/16 47/28/16 46/29/16
f 46/29/17 47/28/17 45/30/17 44/31/17
f 44/31/18 45/30/18 41/32/18 40/33/18
f 42/34/19 46/29/19 44/31/19 40/35/19
f 47/28/20 43/36/20 41/37/20 45/30/20
