# Blender 4.4.3
# www.blender.org
mtllib B_key.mtl
o B_key
v -8.509068 0.948978 -1.723656
v -8.509068 -0.948978 -1.723656
v -8.509068 0.948978 1.723656
v -8.509068 -0.948978 1.723656
v 8.509069 0.948978 1.723656
v 8.509069 -0.948978 1.723656
v -8.509068 1.148556 -1.723656
v -8.509068 1.148556 1.723656
v 8.509069 1.148556 1.723656
v -8.572324 0.948978 -1.723656
v -8.761119 0.970033 -1.685413
v -8.705822 0.955145 -1.712455
v -8.761119 0.970033 1.685413
v -8.572324 0.948978 1.723656
v -8.705822 0.955145 1.712455
v -8.761119 1.127500 -1.685413
v -8.572324 1.148556 -1.723656
v -8.705822 1.142389 -1.712455
v -8.572324 1.148556 1.723656
v -8.761119 1.127500 1.685413
v -8.705822 1.142389 1.712455
v 8.509069 0.948978 -0.808154
v 8.509069 -0.948978 -0.808154
v -0.988946 -0.948978 -0.808154
v -0.988946 -0.948978 -1.723656
v -0.988946 0.948978 -1.723656
v 8.509069 1.148556 -0.808154
v -0.988946 1.148556 -1.723656
v -0.988946 1.148556 -0.808154
v -8.318973 1.166919 -0.007852
v -8.318973 1.166919 -0.007852
v -7.086124 1.166919 1.224996
v -7.131614 1.166919 -1.195210
v -5.898766 1.166919 0.037638
v -6.835268 1.166919 -0.258709
v -7.382472 1.166919 0.288495
v -7.392954 1.166919 -0.269191
v -6.824786 1.166919 0.298977
v -7.108870 1.166919 0.014892
vn -0.0000 -0.0000 1.0000
vn 1.0000 -0.0000 -0.0000
vn -0.0000 -1.0000 -0.0000
vn -1.0000 -0.0000 -0.0000
vn -0.0000 -0.0000 -1.0000
vn -0.0000 1.0000 -0.0000
vn -0.2600 -0.9656 -0.0000
vn -0.0461 -0.9989 -0.0000
vn -0.0461 0.9989 -0.0000
vn -0.2600 0.9656 -0.0000
vn -0.4393 -0.0000 0.8983
vn -0.0836 -0.0000 0.9965
vn -0.0836 -0.0000 -0.9965
vn -0.4393 -0.0000 -0.8983
vt 0.625000 1.000000
vt 0.625000 0.750000
vt 0.375000 0.750000
vt 0.375000 1.000000
vt 0.375000 0.000000
vt 0.625000 0.000000
vt 0.625000 0.183607
vt 0.375000 0.183608
vt 0.375000 0.500000
vt 0.125000 0.750000
vt 0.125000 0.566393
vt 0.264528 0.566393
vt 0.264528 0.500000
vt 0.625000 0.500000
vt 0.625000 0.389528
vt 0.375000 0.389528
vt 0.875000 0.566393
vt 0.875000 0.750000
vt 0.735472 0.500000
vt 0.735472 0.566393
vt 0.625000 0.747226
vt 0.625000 0.502773
vt 0.625000 0.747227
vt 0.625000 0.749594
vt 0.625000 0.500406
vt 0.539126 0.100028
vt 0.524215 0.100028
vt 0.382422 0.100028
vt 0.382422 0.000000
vt 0.539126 0.000000
vt 0.539126 0.750449
vt 0.539126 1.000000
vt 0.382422 1.000000
vt 0.382422 0.750449
vt 0.524215 0.750449
vt 0.000000 0.000000
s 0
usemtl MAT_piano_key.004
f 5/1/1 9/1/1 8/2/1 3/2/1
f 4/3/1 6/4/1 5/1/1 3/2/1
f 6/5/2 23/8/2 22/7/2 5/6/2
f 2/9/3 25/13/3 24/12/3 23/11/3 6/10/3 4/3/3
f 2/9/4 4/3/4 3/2/4 1/14/4
f 26/15/5 25/16/5 2/9/5 1/14/5
f 27/17/6 29/20/6 28/19/6 7/14/6 8/2/6 9/18/6
f 22/7/2 27/7/2 9/6/2 5/6/2
f 7/14/5 28/15/5 26/15/5 1/14/5
f 1/14/5 10/14/5 17/14/5 7/14/5
f 13/21/4 20/23/4 16/22/4 11/22/4
f 7/14/6 17/14/6 19/2/6 8/2/6
f 8/2/1 19/2/1 14/2/1 3/2/1
f 11/22/7 12/25/7 15/24/7 13/21/7
f 12/25/8 10/14/8 14/2/8 15/24/8
f 17/14/9 18/25/9 21/24/9 19/2/9
f 18/25/10 16/22/10 20/23/10 21/24/10
f 13/21/11 15/24/11 21/24/11 20/23/11
f 15/24/12 14/2/12 19/2/12 21/24/12
f 10/14/13 12/25/13 18/25/13 17/14/13
f 12/25/14 11/22/14 16/22/14 18/25/14
f 3/2/3 14/2/3 10/14/3 1/14/3
f 28/26/2 29/30/2 24/29/2 25/28/2 26/27/2
f 27/31/5 22/35/5 23/34/5 24/33/5 29/32/5
usemtl MAT_key_symbol.004
f 39/36/6 35/36/6 33/36/6 37/36/6
f 36/36/6 39/36/6 37/36/6 31/36/6
f 32/36/6 38/36/6 39/36/6 36/36/6
f 38/36/6 34/36/6 35/36/6 39/36/6
l 31 30
o UCX_piano_key
v -8.747870 -0.939475 1.715525
v -8.747870 1.145082 1.715525
v -8.747870 -0.939475 -1.715525
v -8.747870 1.145082 -1.715525
v 8.501142 -0.939475 1.715525
v 8.501142 1.145082 1.715525
v 8.501142 -0.939475 -1.715525
v 8.501142 1.145082 -1.715525
vn -1.0000 -0.0000 -0.0000
vn -0.0000 -0.0000 -1.0000
vn 1.0000 -0.0000 -0.0000
vn -0.0000 -0.0000 1.0000
vn -0.0000 -1.0000 -0.0000
vn -0.0000 1.0000 -0.0000
vt 0.375000 0.000000
vt 0.625000 0.000000
vt 0.625000 0.250000
vt 0.375000 0.250000
vt 0.625000 0.500000
vt 0.375000 0.500000
vt 0.625000 0.750000
vt 0.375000 0.750000
vt 0.625000 1.000000
vt 0.375000 1.000000
vt 0.125000 0.500000
vt 0.125000 0.750000
vt 0.875000 0.500000
vt 0.875000 0.750000
s 0
f 40/37/15 41/38/15 43/39/15 42/40/15
f 42/40/16 43/39/16 47/41/16 46/42/16
f 46/42/17 47/41/17 45/43/17 44/44/17
f 44/44/18 45/43/18 41/45/18 40/46/18
f 42/47/19 46/42/19 44/44/19 40/48/19
f 47/41/20 43/49/20 41/50/20 45/43/20
