# Blender 4.4.3
# www.blender.org
mtllib book2.mtl
o book2
v -1.083136 0.152521 0.948004
v -1.083136 0.558712 0.948004
v -1.083136 0.152521 -1.006122
v -1.083136 0.558712 -1.006122
v 1.083136 0.152521 0.948004
v 1.083136 0.558712 0.948004
v 1.083136 0.152521 -1.006122
v 1.083136 0.558712 -1.006122
v -1.083136 0.457164 -1.052698
v -1.083136 0.355617 -1.074381
v -1.083136 0.254069 -1.052698
v 1.083136 0.457164 -1.052698
v 1.083136 0.355617 -1.074381
v 1.083136 0.254069 -1.052698
v -1.083136 0.507938 0.948004
v -1.083136 0.507938 -1.029410
v 1.083136 0.507938 -1.029410
v 1.083136 0.507938 0.948004
v -1.083136 0.203295 -1.029410
v 1.083136 0.203295 -1.029410
v 1.083136 0.203295 0.948004
v -1.083136 0.203295 0.948004
v -1.083136 0.152521 -0.912941
v -1.083136 0.558712 -0.912941
v 1.083136 0.152521 -0.912941
v 1.083136 0.558712 -0.912941
v 1.083136 0.254069 -0.957296
v 1.083136 0.355617 -0.977946
v 1.083136 0.457164 -0.957296
v -1.083136 0.254069 -0.957296
v -1.083136 0.355617 -0.977946
v -1.083136 0.457164 -0.957296
v 1.083136 0.507938 -0.935119
v -1.083136 0.507938 -0.935119
v -1.083136 0.203295 -0.935119
v 1.083136 0.203295 -0.935119
v -1.036342 0.203295 0.906950
v -1.036342 0.254069 0.906950
v -1.036342 0.355617 0.906950
v -1.036342 0.457164 0.906950
v 1.036342 0.507938 0.906950
v 1.036342 0.457164 0.906950
v 1.036342 0.355617 0.906950
v 1.036342 0.254069 0.906950
v 1.036342 0.254069 -0.916037
v 1.036342 0.355617 -0.935795
v 1.036342 0.457164 -0.916037
v -1.036342 0.507938 0.906950
v 1.036342 0.507938 -0.894818
v 1.036342 0.203295 0.906950
v 1.036342 0.203295 -0.894818
v -1.036342 0.254069 -0.916037
v -1.036342 0.355617 -0.935795
v -1.036342 0.457164 -0.916037
v -1.036342 0.507938 -0.894818
v -1.036342 0.203295 -0.894818
v 0.793969 0.152521 -1.006122
v 0.793969 0.558712 -1.006122
v 0.793969 0.152521 0.948004
v 0.793969 0.558712 0.948004
v 0.793969 0.254069 -1.052698
v 0.793969 0.355617 -1.074381
v 0.793969 0.457164 -1.052698
v 0.793969 0.507938 0.948004
v 0.793969 0.507938 -1.029410
v 0.793969 0.203295 -1.029410
v 0.793969 0.203295 0.948004
v 0.793969 0.558712 -0.912941
v 0.793969 0.152521 -0.912941
v 0.759668 0.254069 0.906950
v 0.759668 0.355617 0.906950
v 0.759668 0.457164 0.906950
v 0.759668 0.507938 0.906950
v 0.759668 0.203295 0.906950
v 0.671086 0.152521 -1.006122
v 0.671086 0.558712 0.948004
v 0.671086 0.507938 0.948004
v 0.671086 0.203295 0.948004
v 0.671086 0.152521 -0.912941
v 0.642094 0.254069 0.906950
v 0.642094 0.355617 0.906950
v 0.642094 0.457164 0.906950
v 0.642094 0.507938 0.906950
v 0.642094 0.203295 0.906950
v 0.671086 0.558712 -1.006122
v 0.671086 0.152521 0.948004
v 0.671086 0.254069 -1.052698
v 0.671086 0.355617 -1.074381
v 0.671086 0.457164 -1.052698
v 0.671086 0.507938 -1.029410
v 0.671086 0.203295 -1.029410
v 0.671086 0.558712 -0.912941
v -0.845119 0.152521 -1.006122
v -0.845119 0.558712 0.948004
v -0.845119 0.507938 0.948004
v -0.845119 0.203295 0.948004
v -0.845119 0.152521 -0.912941
v -0.808608 0.254069 0.906950
v -0.808608 0.355617 0.906950
v -0.808608 0.457164 0.906950
v -0.808608 0.507938 0.906950
v -0.808608 0.203295 0.906950
v -0.845119 0.558712 -1.006122
v -0.845119 0.152521 0.948004
v -0.845119 0.254069 -1.052698
v -0.845119 0.355617 -1.074381
v -0.845119 0.457164 -1.052698
v -0.845119 0.507938 -1.029410
v -0.845119 0.203295 -1.029410
v -0.845119 0.558712 -0.912941
v -0.964128 0.152521 -1.006122
v -0.964128 0.558712 0.948004
v -0.964128 0.507938 0.948004
v -0.964128 0.203295 0.948004
v -0.964128 0.152521 -0.912941
v -0.922475 0.254069 0.906950
v -0.922475 0.355617 0.906950
v -0.922475 0.457164 0.906950
v -0.922475 0.507938 0.906950
v -0.922475 0.203295 0.906950
v -0.964128 0.558712 -1.006122
v -0.964128 0.152521 0.948004
v -0.964128 0.254069 -1.052698
v -0.964128 0.355617 -1.074381
v -0.964128 0.457164 -1.052698
v -0.964128 0.507938 -1.029410
v -0.964128 0.203295 -1.029410
v -0.964128 0.558712 -0.912941
vn -1.0000 -0.0000 -0.0000
vn -0.0000 0.4169 -0.9090
vn 1.0000 -0.0000 -0.0000
vn -0.0000 -0.0000 1.0000
vn -0.0000 -1.0000 -0.0000
vn -0.0000 1.0000 -0.0000
vn -0.6441 0.2266 0.7306
vn -0.6253 0.3066 0.7176
vn -0.6431 0.2314 0.7300
vn -0.6653 -0.0000 0.7465
vn -0.0000 -0.4169 -0.9090
vn -0.0000 -0.3184 -0.9480
vn -0.0000 -0.0000 -1.0000
vn -0.0000 0.3184 -0.9480
vn -0.6441 -0.2266 0.7306
vn -0.6431 -0.2314 0.7300
vn 0.6441 -0.2266 0.7306
vn 0.6253 -0.3066 0.7176
vn 0.6431 -0.2314 0.7300
vn -0.6253 -0.3066 0.7176
vn 0.6253 0.3066 0.7176
vn 0.6441 0.2266 0.7306
vn 0.6431 0.2314 0.7300
vn 0.6653 -0.0000 0.7465
vt 0.341911 0.476775
vt 0.362131 0.476775
vt 0.362131 0.484489
vt 0.341911 0.484489
vt 0.341911 0.624657
vt 0.362131 0.624657
vt 0.362131 0.646250
vt 0.341911 0.646250
vt 0.341911 0.653963
vt 0.362131 0.653963
vt 0.362131 0.808011
vt 0.341911 0.808011
vt 0.341911 0.960886
vt 0.362131 0.960886
vt 0.362131 0.969773
vt 0.341911 0.969773
vt 0.178776 0.653963
vt 0.200369 0.653963
vt 0.200369 0.808011
vt 0.178776 0.808011
vt 0.515005 0.653963
vt 0.523892 0.653963
vt 0.523892 0.808011
vt 0.515005 0.808011
vt 0.220589 0.808011
vt 0.220590 0.653963
vt 0.240810 0.476775
vt 0.220589 0.476775
vt 0.220589 0.322727
vt 0.281250 0.476775
vt 0.341911 0.322727
vt 0.220590 0.624657
vt 0.240810 0.624657
vt 0.240810 0.646250
vt 0.220589 0.646250
vt 0.281250 0.624657
vt 0.281250 0.646250
vt 0.321690 0.624657
vt 0.321690 0.646250
vt 0.240810 0.484489
vt 0.220589 0.484489
vt 0.281250 0.484489
vt 0.321690 0.476775
vt 0.321690 0.484489
vt 0.200369 0.476775
vt 0.200369 0.484489
vt 0.200369 0.624657
vt 0.200369 0.646250
vt 0.200369 0.960886
vt 0.220590 0.960886
vt 0.220589 0.969773
vt 0.200369 0.969773
vt 0.200369 0.322727
vt 0.321690 0.653963
vt 0.240810 0.653963
vt 0.281250 0.653963
vt 0.515005 0.646250
vt 0.523892 0.646250
vt 0.178776 0.646250
vt 0.362131 0.322727
vt 0.758025 0.944873
vt 0.787017 0.944873
vt 0.787017 0.957614
vt 0.758025 0.957614
vt 0.845000 0.944873
vt 0.845000 0.957614
vt 0.902983 0.944873
vt 0.902983 0.957614
vt 0.758025 0.504810
vt 0.787017 0.504809
vt 0.787017 0.725682
vt 0.758025 0.725682
vt 0.845000 0.504809
vt 0.845000 0.725682
vt 0.902983 0.504809
vt 0.902983 0.725682
vt 0.931974 0.944873
vt 0.931974 0.957614
vt 0.931974 0.504809
vt 0.931974 0.725682
vt 0.902983 0.029886
vt 0.931974 0.029886
vt 0.931974 0.250758
vt 0.902983 0.250758
vt 0.845000 0.029886
vt 0.845000 0.250758
vt 0.787017 0.029886
vt 0.787017 0.250758
vt 0.758025 0.029886
vt 0.758025 0.250758
vt 0.220589 0.829604
vt 0.220589 0.838780
vt 0.931974 0.756642
vt 0.902983 0.756642
vt 0.845000 0.756642
vt 0.787017 0.756642
vt 0.758025 0.756642
vt 0.190369 0.112219
vt 0.194961 0.112219
vt 0.194961 0.116080
vt 0.190369 0.116080
vt 0.383724 0.646250
vt 0.383724 0.653963
vt 0.200369 0.829604
vt 0.205769 0.096819
vt 0.215889 0.096819
vt 0.215889 0.101412
vt 0.205769 0.101412
vt 0.266491 0.096819
vt 0.276611 0.096819
vt 0.276611 0.101412
vt 0.266491 0.101412
vt 0.341911 0.829604
vt 0.246250 0.096819
vt 0.246250 0.101412
vt 0.226009 0.096819
vt 0.226009 0.101412
vt 0.383724 0.808011
vt 0.194961 0.193182
vt 0.190369 0.193182
vt 0.362131 0.829604
vt 0.286731 0.096819
vt 0.286731 0.101412
vt 0.341911 0.502262
vt 0.362131 0.502262
vt 0.362131 0.615481
vt 0.341911 0.615481
vt 0.056381 0.653963
vt 0.169600 0.653963
vt 0.169600 0.808011
vt 0.056381 0.808011
vt 0.220589 0.502262
vt 0.240810 0.502262
vt 0.240810 0.615481
vt 0.220589 0.615481
vt 0.281250 0.502262
vt 0.281250 0.615481
vt 0.321690 0.502262
vt 0.321690 0.615481
vt 0.200369 0.502262
vt 0.200369 0.615481
vt 0.056381 0.646250
vt 0.169600 0.646250
vt 0.220590 0.952000
vt 0.220589 0.951999
vt 0.931974 0.769798
vt 0.902983 0.769798
vt 0.845000 0.769798
vt 0.787017 0.769798
vt 0.758025 0.769798
vt 0.297539 0.112219
vt 0.302131 0.112219
vt 0.302131 0.116080
vt 0.297539 0.116080
vt 0.200369 0.838780
vt 0.341911 0.838780
vt 0.302131 0.193182
vt 0.297539 0.193182
vt 0.362131 0.838780
vt 0.220589 0.960886
vt 0.129254 0.112219
vt 0.133702 0.112219
vt 0.133702 0.116080
vt 0.129254 0.116080
vt 0.205769 0.035705
vt 0.215889 0.035705
vt 0.215889 0.040153
vt 0.205769 0.040153
vt 0.266491 0.035705
vt 0.276611 0.035705
vt 0.276611 0.040153
vt 0.266491 0.040153
vt 0.246250 0.035705
vt 0.246250 0.040153
vt 0.226009 0.035705
vt 0.226009 0.040153
vt 0.133702 0.193182
vt 0.129254 0.193182
vt 0.286731 0.035705
vt 0.286731 0.040153
vt 0.931974 0.932131
vt 0.902983 0.932131
vt 0.845000 0.932131
vt 0.787017 0.932131
vt 0.758025 0.932131
vt 0.392900 0.646250
vt 0.506119 0.646250
vt 0.506119 0.653963
vt 0.392900 0.653963
vt 0.200369 0.952000
vt 0.341911 0.952000
vt 0.341911 0.951999
vt 0.506119 0.808011
vt 0.392900 0.808011
vt 0.362131 0.952000
vt 0.362131 0.493375
vt 0.341911 0.493375
vt 0.038608 0.653963
vt 0.047495 0.653963
vt 0.047495 0.808011
vt 0.038608 0.808011
vt 0.240810 0.493375
vt 0.220589 0.493375
vt 0.281250 0.493375
vt 0.321690 0.493375
vt 0.200369 0.493375
vt 0.038608 0.646250
vt 0.047495 0.646250
vt 0.358798 0.112219
vt 0.363246 0.112219
vt 0.363246 0.116080
vt 0.358798 0.116080
vt 0.363246 0.193182
vt 0.358798 0.193182
s 1
usemtl MAT_book2
f 34/1/1 24/2/1 4/3/1 16/4/1
f 65/5/2 58/6/2 8/7/2 17/8/2
f 33/9/3 26/10/3 6/11/3 18/12/3
f 113/13/4 112/14/4 2/15/4 15/16/4
f 69/17/5 25/18/5 5/19/5 59/20/5
f 128/21/6 24/22/6 2/23/6 112/24/6
f 21/25/6 36/26/6 51/26/6 50/25/6
f 30/27/7 35/28/8 56/28/8 52/27/9
f 35/28/6 22/29/6 37/29/6 56/28/6
f 31/30/10 30/27/7 52/27/9 53/30/10
f 33/9/5 18/12/5 41/12/5 49/9/5
f 15/31/5 34/1/5 55/1/5 48/31/5
f 66/32/11 61/33/12 14/34/12 20/35/11
f 61/33/12 62/36/13 13/37/13 14/34/12
f 62/36/13 63/38/14 12/39/14 13/37/13
f 35/28/1 30/27/1 11/40/1 19/41/1
f 30/27/1 31/30/1 10/42/1 11/40/1
f 31/30/1 32/43/1 9/44/1 10/42/1
f 32/43/15 31/30/10 53/30/10 54/43/16
f 113/13/5 15/16/5 48/16/5 119/13/5
f 63/38/14 65/5/2 17/8/2 12/39/14
f 32/43/1 34/1/1 16/4/1 9/44/1
f 23/45/1 35/28/1 19/41/1 3/46/1
f 57/47/11 66/32/11 20/35/11 7/48/11
f 25/18/3 36/26/3 21/25/3 5/19/3
f 122/49/4 114/50/4 22/51/4 1/52/4
f 7/48/3 20/35/3 36/26/3 25/18/3
f 1/53/1 22/29/1 35/28/1 23/45/1
f 29/54/17 33/9/18 49/9/18 47/54/19
f 12/39/3 17/8/3 33/9/3 29/54/3
f 34/1/20 32/43/15 54/43/16 55/1/20
f 36/26/21 27/55/22 45/55/23 51/26/21
f 27/55/22 28/56/24 46/56/24 45/55/23
f 13/37/3 12/39/3 29/54/3 28/56/3
f 14/34/3 13/37/3 28/56/3 27/55/3
f 20/35/3 14/34/3 27/55/3 36/26/3
f 121/57/6 4/58/6 24/22/6 128/21/6
f 57/59/5 7/48/5 25/18/5 69/17/5
f 17/8/3 8/7/3 26/10/3 33/9/3
f 15/31/1 2/60/1 24/2/1 34/1/1
f 120/61/4 116/62/4 38/63/4 37/64/4
f 116/62/4 117/65/4 39/66/4 38/63/4
f 117/65/4 118/67/4 40/68/4 39/66/4
f 51/69/3 45/70/3 44/71/3 50/72/3
f 45/70/3 46/73/3 43/74/3 44/71/3
f 46/73/3 47/75/3 42/76/3 43/74/3
f 118/67/4 119/77/4 48/78/4 40/68/4
f 47/75/3 49/79/3 41/80/3 42/76/3
f 40/81/1 48/82/1 55/83/1 54/84/1
f 39/85/1 40/81/1 54/84/1 53/86/1
f 38/87/1 39/85/1 53/86/1 52/88/1
f 37/89/1 38/87/1 52/88/1 56/90/1
f 28/56/24 29/54/17 47/54/19 46/56/24
f 67/91/6 21/25/6 50/25/6 74/91/6
f 78/92/6 67/91/6 74/91/6 84/92/6
f 42/76/4 41/80/4 73/93/4 72/94/4
f 43/74/4 42/76/4 72/94/4 71/95/4
f 44/71/4 43/74/4 71/95/4 70/96/4
f 50/72/4 44/71/4 70/96/4 74/97/4
f 75/98/5 57/99/5 69/100/5 79/101/5
f 8/7/6 58/102/6 68/103/6 26/10/6
f 5/19/4 21/25/4 67/91/4 59/104/4
f 75/105/11 91/106/11 66/107/11 57/108/11
f 89/109/14 90/110/2 65/111/2 63/112/14
f 18/12/5 64/113/5 73/113/5 41/12/5
f 88/114/13 89/109/14 63/112/14 62/115/13
f 87/116/12 88/114/13 62/115/13 61/117/12
f 91/106/11 87/116/12 61/117/12 66/107/11
f 26/10/6 68/103/6 60/118/6 6/11/6
f 79/101/5 69/100/5 59/119/5 86/120/5
f 18/12/4 6/11/4 60/121/4 64/113/4
f 90/110/2 85/122/2 58/123/2 65/111/2
f 108/124/2 103/125/2 85/126/2 90/127/2
f 97/128/5 79/129/5 86/130/5 104/131/5
f 109/132/11 105/133/12 87/134/12 91/135/11
f 105/133/12 106/136/13 88/137/13 87/134/12
f 106/136/13 107/138/14 89/139/14 88/137/13
f 107/138/14 108/124/2 90/127/2 89/139/14
f 93/140/11 109/132/11 91/135/11 75/141/11
f 93/142/5 75/143/5 79/129/5 97/128/5
f 96/144/6 78/92/6 84/92/6 102/145/6
f 72/94/4 73/93/4 83/146/4 82/147/4
f 71/95/4 72/94/4 82/147/4 81/148/4
f 70/96/4 71/95/4 81/148/4 80/149/4
f 74/97/4 70/96/4 80/149/4 84/150/4
f 58/151/6 85/152/6 92/153/6 68/154/6
f 59/104/4 67/91/4 78/92/4 86/155/4
f 64/113/5 77/156/5 83/156/5 73/113/5
f 68/154/6 92/153/6 76/157/6 60/158/6
f 64/113/4 60/121/4 76/159/4 77/156/4
f 114/50/6 96/144/6 102/145/6 120/160/6
f 111/161/5 93/162/5 97/163/5 115/164/5
f 111/165/11 127/166/11 109/167/11 93/168/11
f 125/169/14 126/170/2 108/171/2 107/172/14
f 124/173/13 125/169/14 107/172/14 106/174/13
f 123/175/12 124/173/13 106/174/13 105/176/12
f 127/166/11 123/175/12 105/176/12 109/167/11
f 115/164/5 97/163/5 104/177/5 122/178/5
f 126/170/2 121/179/2 103/180/2 108/171/2
f 82/147/4 83/146/4 101/181/4 100/182/4
f 81/148/4 82/147/4 100/182/4 99/183/4
f 80/149/4 81/148/4 99/183/4 98/184/4
f 84/150/4 80/149/4 98/184/4 102/185/4
f 85/186/6 103/187/6 110/188/6 92/189/6
f 86/155/4 78/92/4 96/144/4 104/190/4
f 77/156/5 95/191/5 101/192/5 83/156/5
f 92/189/6 110/188/6 94/193/6 76/194/6
f 77/156/4 76/159/4 94/195/4 95/191/4
f 16/4/2 4/3/2 121/196/2 126/197/2
f 23/198/5 115/199/5 122/200/5 1/201/5
f 19/41/11 11/40/12 123/202/12 127/203/11
f 11/40/12 10/42/13 124/204/13 123/202/12
f 10/42/13 9/44/14 125/205/14 124/204/13
f 9/44/14 16/4/2 126/197/2 125/205/14
f 3/46/11 19/41/11 127/203/11 111/206/11
f 3/207/5 111/208/5 115/199/5 23/198/5
f 22/51/6 114/50/6 120/160/6 37/51/6
f 100/182/4 101/181/4 119/77/4 118/67/4
f 99/183/4 100/182/4 118/67/4 117/65/4
f 98/184/4 99/183/4 117/65/4 116/62/4
f 102/185/4 98/184/4 116/62/4 120/61/4
f 103/209/6 121/210/6 128/211/6 110/212/6
f 104/190/4 96/144/4 114/50/4 122/49/4
f 95/191/5 113/13/5 119/13/5 101/192/5
f 110/212/6 128/211/6 112/213/6 94/214/6
f 95/191/4 94/195/4 112/14/4 113/13/4
o UCX_book
v 1.083136 0.558712 -1.006122
v 1.083136 0.152521 -1.006122
v -1.083136 0.558712 -1.006122
v -1.083136 0.152521 -1.006122
v 1.083136 0.558712 0.948004
v 1.083136 0.152521 0.948004
v -1.083136 0.558712 0.948004
v -1.083136 0.152521 0.948004
vn -0.0000 -0.0000 -1.0000
vn -1.0000 -0.0000 -0.0000
vn -0.0000 -0.0000 1.0000
vn 1.0000 -0.0000 -0.0000
vn -0.0000 1.0000 -0.0000
vn -0.0000 -1.0000 -0.0000
vt 0.375000 0.000000
vt 0.625000 0.000000
vt 0.625000 0.250000
vt 0.375000 0.250000
vt 0.625000 0.500000
vt 0.375000 0.500000
vt 0.625000 0.750000
vt 0.375000 0.750000
vt 0.625000 1.000000
vt 0.375000 1.000000
vt 0.125000 0.500000
vt 0.125000 0.750000
vt 0.875000 0.500000
vt 0.875000 0.750000
s 0
f 129/215/25 130/216/25 132/217/25 131/218/25
f 131/218/26 132/217/26 136/219/26 135/220/26
f 135/220/27 136/219/27 134/221/27 133/222/27
f 133/222/28 134/221/28 130/223/28 129/224/28
f 131/225/29 135/220/29 133/222/29 129/226/29
f 136/219/30 132/227/30 130/228/30 134/221/30
