# Blender 4.4.0
# www.blender.org
mtllib door.mtl
o door
v 0.100000 0.000000 2.000000
v -0.066509 0.523210 1.260706
v 0.066509 3.338657 -0.352943
v 0.070000 3.338657 1.260706
v 0.066509 0.523210 1.260706
v 0.070000 6.366650 1.260706
v 0.066509 6.366650 -0.352943
v 0.066509 0.523210 -0.352943
v -0.066509 2.736584 1.260706
v 0.070000 3.338657 0.352943
v 0.066509 2.736584 -0.352943
v 0.070000 6.366650 0.352943
v 0.066509 3.338657 -1.260706
v 0.066509 2.736584 1.260706
v -0.066509 0.523210 -0.352943
v 0.066509 6.366650 -1.260706
v 0.066509 0.523210 -1.260706
v -0.066509 2.736584 -0.352943
v 0.066509 2.736584 -1.260706
v -0.066509 3.338657 -0.352943
v 0.066509 0.523210 0.352943
v -0.070000 3.338657 1.260706
v 0.066509 2.736584 0.352943
v -0.066509 0.523210 0.352943
v -0.066509 2.736584 0.352943
v -0.066509 6.366650 -0.352943
v 0.100000 7.000000 2.000000
v -0.066509 0.523210 -1.260706
v -0.066509 2.736584 -1.260706
v -0.070000 6.366650 1.260706
v -0.100000 0.000000 2.000000
v -0.066509 3.338657 -1.260706
v -0.100000 7.000000 2.000000
v -0.066509 6.366650 -1.260706
v 0.100000 0.000000 -2.000000
v -0.070000 3.338657 0.352943
v 0.100000 7.000000 -2.000000
v -0.070000 6.366650 0.352943
v -0.100000 0.000000 -2.000000
v -0.100000 7.000000 -2.000000
v -0.100000 3.212709 1.376347
v -0.100000 6.492598 1.376347
v -0.100000 6.492598 0.237301
v -0.100000 3.212709 0.237301
v -0.100000 3.915277 -0.237301
v -0.100000 3.212709 -0.237301
v -0.100000 3.212709 -1.376347
v -0.100000 6.492598 -1.376347
v -0.100000 6.492598 -0.237301
v -0.100000 0.431146 -0.237301
v -0.100000 0.431146 -1.376347
v -0.100000 2.828649 -0.237301
v -0.100000 2.828649 -1.376347
v -0.100000 2.828649 1.376347
v -0.100000 2.828649 0.237301
v -0.100000 0.431146 1.376347
v -0.100000 0.431146 0.237301
v 0.100000 0.431146 1.376347
v 0.100000 2.828649 1.376347
v 0.100000 2.828649 0.237301
v 0.100000 0.431146 0.237301
v 0.100000 0.431146 -0.237301
v 0.100000 0.431146 -1.376347
v 0.100000 2.828649 -1.376347
v 0.100000 2.828649 -0.237301
v 0.100000 6.492598 -1.376347
v 0.100000 6.492598 -0.237301
v 0.100000 3.212709 -0.237301
v 0.100000 3.212709 -1.376347
v 0.100000 3.212709 1.376347
v 0.100000 6.492598 1.376347
v 0.100000 6.492598 0.237301
v 0.100000 3.212709 0.237301
v 0.221151 3.273739 1.690960
v 0.309501 3.330784 1.690960
v 0.221151 3.308339 1.786022
v 0.309501 3.352038 1.749355
v 0.221151 3.395949 1.836604
v 0.309501 3.405855 1.780426
v 0.221151 3.495575 1.819037
v 0.309501 3.467053 1.769635
v 0.221151 3.560602 1.741542
v 0.309501 3.506997 1.722031
v 0.221151 3.560602 1.640378
v 0.309501 3.506997 1.659889
v 0.221151 3.495575 1.562883
v 0.309501 3.467053 1.612285
v 0.221151 3.395949 1.545316
v 0.309501 3.405855 1.601494
v 0.221151 3.308339 1.595898
v 0.309501 3.352038 1.632565
v 0.278843 3.308339 1.786022
v 0.278843 3.273739 1.690960
v 0.278843 3.395949 1.836604
v 0.278843 3.495575 1.819037
v 0.278843 3.560602 1.741542
v 0.278843 3.560602 1.640378
v 0.278843 3.495575 1.562883
v 0.278843 3.395949 1.545316
v 0.278843 3.308339 1.595898
v 0.301576 3.330070 1.767788
v 0.301576 3.302107 1.690960
v 0.301576 3.400875 1.808667
v 0.301576 3.481391 1.794470
v 0.301576 3.533945 1.731839
v 0.301576 3.533945 1.650081
v 0.301576 3.481391 1.587450
v 0.301576 3.400875 1.573253
v 0.301576 3.330070 1.614132
v 0.202280 3.297124 1.690960
v 0.202280 3.326253 1.770991
v 0.202280 3.400010 1.813574
v 0.202280 3.483883 1.798785
v 0.202280 3.538627 1.733544
v 0.202280 3.538627 1.648376
v 0.202280 3.483883 1.583135
v 0.202280 3.400010 1.568345
v 0.202280 3.326253 1.610929
v -0.221157 3.273739 1.690960
v -0.309507 3.330784 1.690960
v -0.221157 3.308339 1.595898
v -0.309507 3.352038 1.632565
v -0.221157 3.395949 1.545316
v -0.309507 3.405855 1.601494
v -0.221157 3.495575 1.562883
v -0.309507 3.467053 1.612285
v -0.221157 3.560602 1.640378
v -0.309507 3.506997 1.659889
v -0.221157 3.560602 1.741542
v -0.309507 3.506997 1.722031
v -0.221157 3.495575 1.819037
v -0.309507 3.467053 1.769635
v -0.221157 3.395949 1.836604
v -0.309507 3.405855 1.780426
v -0.221157 3.308339 1.786022
v -0.309507 3.352038 1.749355
v -0.278849 3.308339 1.595898
v -0.278849 3.273739 1.690960
v -0.278849 3.395949 1.545316
v -0.278849 3.495575 1.562883
v -0.278849 3.560602 1.640378
v -0.278849 3.560602 1.741542
v -0.278849 3.495575 1.819037
v -0.278849 3.395949 1.836604
v -0.278849 3.308339 1.786022
v -0.301582 3.330070 1.614132
v -0.301582 3.302107 1.690960
v -0.301582 3.400875 1.573253
v -0.301582 3.481391 1.587450
v -0.301582 3.533945 1.650081
v -0.301582 3.533945 1.731839
v -0.301582 3.481391 1.794470
v -0.301582 3.400875 1.808667
v -0.301582 3.330070 1.767788
v -0.202286 3.297124 1.690960
v -0.202286 3.326253 1.610929
v -0.202286 3.400010 1.568345
v -0.202286 3.483883 1.583135
v -0.202286 3.538627 1.648376
v -0.202286 3.538627 1.733544
v -0.202286 3.483883 1.798785
v -0.202286 3.400010 1.813574
v -0.202286 3.326253 1.770991
v 0.117931 3.467313 1.690960
v 0.209297 3.467313 1.690960
v 0.117931 3.450113 1.655243
v 0.209297 3.450113 1.655243
v 0.117931 3.411464 1.646422
v 0.209297 3.411464 1.646422
v 0.117931 3.380471 1.671139
v 0.209297 3.380471 1.671139
v 0.117931 3.380471 1.710781
v 0.209297 3.380471 1.710781
v 0.117931 3.411464 1.735498
v 0.209297 3.411464 1.735498
v 0.117931 3.450113 1.726676
v 0.209297 3.450113 1.726676
v -0.211097 3.467313 1.690960
v -0.119731 3.467313 1.690960
v -0.211097 3.450113 1.655243
v -0.119731 3.450113 1.655243
v -0.211097 3.411464 1.646422
v -0.119731 3.411464 1.646422
v -0.211097 3.380471 1.671139
v -0.119731 3.380471 1.671139
v -0.211097 3.380471 1.710781
v -0.119731 3.380471 1.710781
v -0.211097 3.411464 1.735498
v -0.119731 3.411464 1.735498
v -0.211097 3.450113 1.726676
v -0.119731 3.450113 1.726676
v 0.024002 2.898251 1.485056
v 0.024002 3.764770 1.485056
v 0.125513 2.949487 1.517781
v 0.125513 3.713534 1.517781
v 0.024002 2.898251 1.896864
v 0.024002 3.764770 1.896864
v 0.125513 2.949487 1.864139
v 0.125513 3.713534 1.864139
v 0.125513 2.880466 1.754792
v 0.125513 2.880466 1.627128
v 0.125513 3.782555 1.627128
v 0.125513 3.782555 1.754792
v 0.024002 2.811605 1.622325
v 0.024002 2.811605 1.759595
v 0.024002 3.851416 1.759595
v 0.024002 3.851416 1.622325
v 0.096000 3.764770 1.485056
v 0.096000 2.898251 1.485056
v 0.096000 2.811605 1.622325
v 0.096000 3.851416 1.759595
v 0.096000 3.764770 1.896864
v 0.096000 2.898251 1.896864
v 0.096000 2.811605 1.759595
v 0.096000 3.851416 1.622325
v -0.024005 2.898251 1.896864
v -0.024005 3.764770 1.896864
v -0.125516 2.949487 1.864139
v -0.125516 3.713534 1.864139
v -0.024005 2.898251 1.485056
v -0.024005 3.764770 1.485056
v -0.125516 2.949487 1.517781
v -0.125516 3.713534 1.517781
v -0.125516 2.880466 1.627128
v -0.125516 2.880466 1.754792
v -0.125516 3.782555 1.754792
v -0.125516 3.782555 1.627128
v -0.024005 2.811605 1.759595
v -0.024005 2.811605 1.622325
v -0.024005 3.851416 1.622325
v -0.024005 3.851416 1.759595
v -0.096002 3.764770 1.896864
v -0.096002 2.898251 1.896864
v -0.096002 2.811605 1.759595
v -0.096002 3.851416 1.622325
v -0.096002 3.764770 1.485056
v -0.096002 2.898251 1.485056
v -0.096002 2.811605 1.622325
v -0.096002 3.851416 1.759595
vn -0.0000 -0.0000 1.0000
vn -1.0000 -0.0000 -0.0000
vn -0.0000 -0.0000 -1.0000
vn 1.0000 -0.0000 -0.0000
vn -0.0000 -1.0000 -0.0000
vn -0.0000 1.0000 -0.0000
vn -0.9680 -0.0000 -0.2511
vn -0.9680 -0.0000 0.2511
vn -0.9728 0.2317 -0.0000
vn -0.9728 -0.2317 -0.0000
vn -0.9605 -0.0000 -0.2782
vn -0.9605 -0.0000 0.2782
vn -0.9664 0.2570 -0.0000
vn -0.9664 -0.2570 -0.0000
vn -0.9398 0.3419 -0.0000
vn -0.9398 -0.3419 -0.0000
vn 0.9605 -0.0000 -0.2782
vn 0.9605 -0.0000 0.2782
vn 0.9398 0.3419 -0.0000
vn 0.9398 -0.3419 -0.0000
vn 0.9664 0.2570 -0.0000
vn 0.9664 -0.2570 -0.0000
vn 0.9680 -0.0000 -0.2511
vn 0.9680 -0.0000 0.2511
vn 0.9728 0.2317 -0.0000
vn 0.9728 -0.2317 -0.0000
vn -0.5257 -0.8507 -0.0000
vn 0.5283 -0.8490 -0.0000
vn 0.5274 -0.6178 0.5832
vn -0.5248 -0.6190 0.5843
vn 0.5251 -0.1200 0.8426
vn -0.5224 -0.1202 0.8442
vn 0.5261 0.3742 0.7637
vn -0.5235 0.3749 0.7651
vn 0.5282 0.7885 0.3151
vn -0.5255 0.7901 0.3157
vn 0.5282 0.7885 -0.3151
vn -0.5255 0.7901 -0.3157
vn 0.5261 0.3742 -0.7637
vn -0.5235 0.3749 -0.7651
vn 0.5251 -0.1200 -0.8426
vn -0.5224 -0.1202 -0.8442
vn 0.9994 -0.0263 0.0240
vn 0.9996 -0.0290 -0.0000
vn 0.9994 -0.0263 -0.0240
vn 0.9985 -0.0079 -0.0533
vn 0.9990 0.0203 -0.0399
vn 0.9995 0.0285 -0.0110
vn 0.9995 0.0285 0.0110
vn 0.9990 0.0203 0.0399
vn 0.9985 -0.0079 0.0533
vn 0.5274 -0.6178 -0.5832
vn -0.5248 -0.6190 -0.5843
vn -0.9995 -0.0310 -0.0000
vn -0.9992 -0.0284 -0.0264
vn 0.9242 -0.3819 -0.0000
vn 0.9237 -0.2781 0.2634
vn 0.9219 -0.0544 0.3835
vn 0.9229 0.1690 0.3461
vn 0.9241 0.3547 0.1422
vn 0.9241 0.3547 -0.1422
vn 0.9229 0.1690 -0.3461
vn 0.9219 -0.0544 -0.3835
vn 0.9237 -0.2781 -0.2634
vn -0.9992 -0.0284 0.0264
vn -0.9982 -0.0087 0.0597
vn -0.9988 0.0221 0.0444
vn -0.9995 0.0305 0.0120
vn -0.9995 0.0305 -0.0120
vn -0.9988 0.0221 -0.0444
vn -0.9982 -0.0087 -0.0597
vn 0.5257 -0.8507 -0.0000
vn -0.5283 -0.8490 -0.0000
vn -0.5274 -0.6178 -0.5832
vn 0.5248 -0.6190 -0.5843
vn -0.5251 -0.1200 -0.8426
vn 0.5224 -0.1202 -0.8442
vn -0.5261 0.3742 -0.7637
vn 0.5234 0.3749 -0.7651
vn -0.5282 0.7885 -0.3151
vn 0.5255 0.7901 -0.3157
vn -0.5282 0.7885 0.3151
vn 0.5255 0.7901 0.3157
vn -0.5261 0.3742 0.7637
vn 0.5234 0.3749 0.7651
vn -0.5251 -0.1200 0.8426
vn 0.5224 -0.1202 0.8442
vn -0.9994 -0.0263 -0.0240
vn -0.9996 -0.0290 -0.0000
vn -0.9994 -0.0263 0.0240
vn -0.9985 -0.0079 0.0533
vn -0.9990 0.0203 0.0399
vn -0.9995 0.0285 0.0110
vn -0.9995 0.0285 -0.0110
vn -0.9990 0.0203 -0.0399
vn -0.9985 -0.0079 -0.0533
vn -0.5274 -0.6178 0.5832
vn 0.5248 -0.6190 0.5843
vn 0.9995 -0.0310 -0.0000
vn 0.9992 -0.0284 0.0264
vn -0.9242 -0.3819 -0.0000
vn -0.9237 -0.2781 -0.2634
vn -0.9219 -0.0544 -0.3835
vn -0.9229 0.1690 -0.3461
vn -0.9241 0.3547 -0.1422
vn -0.9241 0.3547 0.1422
vn -0.9229 0.1690 0.3461
vn -0.9219 -0.0544 0.3835
vn -0.9237 -0.2781 0.2634
vn 0.9992 -0.0284 -0.0264
vn 0.9982 -0.0087 -0.0597
vn 0.9988 0.0221 -0.0444
vn 0.9995 0.0305 -0.0120
vn 0.9995 0.0305 0.0120
vn 0.9988 0.0221 0.0444
vn 0.9982 -0.0087 0.0597
vn -0.9994 0.0332 -0.0000
vn 0.9994 0.0332 -0.0000
vn 0.9987 0.0270 -0.0422
vn -0.9987 0.0270 -0.0422
vn 0.9978 -0.0109 -0.0653
vn -0.9978 -0.0109 -0.0653
vn 0.9993 -0.0323 -0.0181
vn -0.9993 -0.0323 -0.0181
vn 0.9993 -0.0323 0.0181
vn -0.9993 -0.0323 0.0181
vn 0.9978 -0.0109 0.0653
vn -0.9978 -0.0109 0.0653
vn 0.9987 0.0270 0.0422
vn -0.9987 0.0270 0.0422
vn -0.0000 -0.8456 0.5338
vn -0.0000 0.8456 -0.5338
vn -0.0000 0.8456 0.5338
vn -0.0000 -0.8456 -0.5338
vn 0.7426 -0.0000 -0.6697
vn 0.8996 -0.3693 -0.2331
vn 0.8996 0.3693 0.2331
vn 0.7426 -0.0000 0.6697
vn 0.8996 -0.3693 0.2331
vn 0.9191 -0.3939 -0.0000
vn 0.8996 0.3693 -0.2331
vn 0.9191 0.3939 -0.0000
vn -0.7426 -0.0000 0.6697
vn -0.8996 -0.3693 0.2331
vn -0.8996 0.3693 -0.2331
vn -0.7426 -0.0000 -0.6697
vn -0.8996 -0.3693 -0.2331
vn -0.9191 -0.3939 -0.0000
vn -0.8996 0.3693 0.2331
vn -0.9191 0.3939 -0.0000
vt 0.375000 0.000000
vt 0.625000 0.000000
vt 0.625000 0.250000
vt 0.375000 0.250000
vt 0.606879 0.288978
vt 0.489740 0.288978
vt 0.476023 0.288978
vt 0.489740 0.360169
vt 0.476023 0.360169
vt 0.514831 0.389831
vt 0.489740 0.389831
vt 0.476023 0.389831
vt 0.390398 0.389831
vt 0.390398 0.461022
vt 0.476023 0.461022
vt 0.489740 0.461022
vt 0.606879 0.461022
vt 0.606878 0.389831
vt 0.606878 0.360169
vt 0.625000 0.500000
vt 0.375000 0.500000
vt 0.390398 0.288978
vt 0.390398 0.360169
vt 0.625000 0.750000
vt 0.375000 0.750000
vt 0.489740 0.961022
vt 0.476023 0.961022
vt 0.476023 0.889831
vt 0.489740 0.889831
vt 0.476023 0.860169
vt 0.489740 0.860169
vt 0.606879 0.860169
vt 0.606879 0.788978
vt 0.489740 0.788978
vt 0.476023 0.788978
vt 0.390398 0.788978
vt 0.390398 0.860169
vt 0.390398 0.889831
vt 0.625000 1.000000
vt 0.375000 1.000000
vt 0.390398 0.961022
vt 0.606879 0.961022
vt 0.606878 0.889831
vt 0.125000 0.500000
vt 0.125000 0.750000
vt 0.875000 0.500000
vt 0.875000 0.750000
vt 0.625000 0.125000
vt 0.375000 0.125000
vt 0.375000 0.625000
vt 0.625000 0.625000
vt 0.125000 0.625000
vt 0.875000 0.625000
vt 0.428551 0.125000
vt 0.625000 0.125000
vt 0.375000 0.125000
vt 0.625000 0.125000
vt 0.375000 0.125000
vt 1.000000 0.500000
vt 1.000000 1.000000
vt 0.888889 1.000000
vt 0.888889 0.500000
vt 0.777778 1.000000
vt 0.777778 0.500000
vt 0.666667 1.000000
vt 0.666667 0.500000
vt 0.555556 1.000000
vt 0.555556 0.500000
vt 0.444444 1.000000
vt 0.444444 0.500000
vt 0.333333 1.000000
vt 0.333333 0.500000
vt 0.222222 1.000000
vt 0.222222 0.500000
vt 0.344764 0.362936
vt 0.250000 0.397427
vt 0.155236 0.362936
vt 0.104813 0.275600
vt 0.122324 0.176287
vt 0.199577 0.111464
vt 0.300423 0.111464
vt 0.377676 0.176287
vt 0.395187 0.275600
vt 0.111111 1.000000
vt 0.111111 0.500000
vt 0.000000 1.000000
vt 0.000000 0.500000
vt 0.250000 0.443964
vt 0.374678 0.398585
vt 0.404269 0.433851
vt 0.250000 0.490000
vt 0.441017 0.283682
vt 0.486354 0.291676
vt 0.417978 0.153018
vt 0.457846 0.130000
vt 0.316340 0.067733
vt 0.332085 0.024474
vt 0.183660 0.067733
vt 0.167915 0.024474
vt 0.082022 0.153018
vt 0.042154 0.130000
vt 0.058983 0.283682
vt 0.013646 0.291676
vt 0.125322 0.398585
vt 0.095731 0.433851
vt 0.750000 0.490000
vt 0.904269 0.433851
vt 0.986354 0.291676
vt 0.957846 0.130000
vt 0.832085 0.024474
vt 0.667915 0.024474
vt 0.542154 0.130000
vt 0.513646 0.291676
vt 0.595731 0.433851
vt 0.857143 1.000000
vt 0.857143 0.500000
vt 0.714286 1.000000
vt 0.714286 0.500000
vt 0.571429 1.000000
vt 0.571429 0.500000
vt 0.428571 1.000000
vt 0.428571 0.500000
vt 0.285714 1.000000
vt 0.285714 0.500000
vt 0.437640 0.399638
vt 0.062360 0.399638
vt 0.016017 0.196595
vt 0.145868 0.033767
vt 0.354132 0.033767
vt 0.483983 0.196595
vt 0.142857 1.000000
vt 0.142857 0.500000
vt 0.000000 1.000000
vt 0.000000 0.500000
vt 0.937640 0.399638
vt 0.983983 0.196595
vt 0.854132 0.033767
vt 0.645868 0.033767
vt 0.516017 0.196595
vt 0.562360 0.399638
vt 0.391556 0.413751
vt 0.608444 0.413751
vt 0.605832 0.480133
vt 0.394168 0.480133
vt 0.375000 0.916667
vt 0.625000 0.916667
vt 0.291667 0.500000
vt 0.291667 0.750000
vt 0.791667 0.500000
vt 0.791667 0.750000
vt 0.708333 0.500000
vt 0.708333 0.750000
vt 0.208333 0.500000
vt 0.208333 0.750000
vt 0.625000 0.833333
vt 0.375000 0.833333
vt 0.394168 0.269867
vt 0.605832 0.269867
vt 0.608444 0.336249
vt 0.391556 0.336249
vt 0.375000 0.333333
vt 0.625000 0.416667
vt 0.375000 0.416667
vt 0.625000 0.333333
s 0
usemtl MAT_hotel_door
f 1/1/1 27/2/1 33/3/1 31/4/1
f 33/3/2 42/5/2 41/6/2 31/4/2
f 54/7/2 41/6/2 44/8/2 55/9/2
f 55/9/2 44/8/2 45/10/2 46/11/2 52/12/2 50/13/2 51/14/2 53/15/2 47/16/2 48/17/2 49/18/2 43/19/2 42/5/2 33/3/2 40/20/2 39/21/2 31/4/2 41/6/2 54/7/2 56/22/2 57/23/2
f 46/11/2 47/16/2 53/15/2 52/12/2
f 44/8/2 43/19/2 49/18/2 45/10/2
f 39/21/3 40/20/3 37/24/3 35/25/3
f 70/26/4 59/27/4 60/28/4 73/29/4
f 73/29/4 60/28/4 65/30/4 68/31/4 67/32/4 66/33/4 69/34/4 64/35/4 63/36/4 62/37/4 61/38/4 35/25/4 37/24/4 27/39/4 1/40/4 58/41/4 59/27/4 70/26/4 71/42/4 72/43/4
f 68/31/4 65/30/4 64/35/4 69/34/4
f 60/28/4 61/38/4 62/37/4 65/30/4
f 58/41/4 1/40/4 35/25/4 61/38/4
f 31/44/5 39/21/5 35/25/5 1/45/5
f 40/20/6 33/46/6 27/47/6 37/24/6
f 42/48/7 30/2/7 22/1/7 41/49/7
f 44/50/8 36/25/8 38/24/8 43/51/8
f 36/25/2 22/40/2 30/39/2 38/24/2
f 41/52/9 22/45/9 36/25/9 44/50/9
f 38/24/10 30/47/10 42/53/10 43/51/10
f 45/54/11 49/55/11 26/2/11 20/1/11 46/56/11
f 47/50/12 32/25/12 34/24/12 48/51/12
f 32/25/2 20/40/2 26/39/2 34/24/2
f 46/52/13 20/45/13 32/25/13 47/50/13
f 34/24/14 26/47/14 49/53/14 48/51/14
f 52/55/11 18/2/11 15/1/11 50/56/11
f 51/50/12 28/25/12 29/24/12 53/51/12
f 28/25/2 15/40/2 18/39/2 29/24/2
f 50/52/15 15/45/15 28/25/15 51/50/15
f 29/24/16 18/47/16 52/53/16 53/51/16
f 54/55/11 9/2/11 2/1/11 56/56/11
f 57/50/12 24/25/12 25/24/12 55/51/12
f 24/25/2 2/40/2 9/39/2 25/24/2
f 56/52/15 2/45/15 24/25/15 57/50/15
f 25/24/16 9/47/16 54/53/16 55/51/16
f 5/4/17 14/3/17 59/57/17 58/58/17
f 5/4/4 21/21/4 23/20/4 14/3/4
f 23/20/18 21/21/18 61/50/18 60/51/18
f 61/50/19 21/21/19 5/44/19 58/52/19
f 59/53/20 14/46/20 23/20/20 60/51/20
f 8/4/17 11/3/17 65/57/17 62/58/17
f 8/4/4 17/21/4 19/20/4 11/3/4
f 19/20/18 17/21/18 63/50/18 64/51/18
f 63/50/19 17/21/19 8/44/19 62/52/19
f 11/46/20 19/20/20 64/51/20 65/53/20
f 68/58/17 3/4/17 7/3/17 67/57/17
f 3/4/4 13/21/4 16/20/4 7/3/4
f 66/51/18 16/20/18 13/21/18 69/50/18
f 69/50/21 13/21/21 3/44/21 68/52/21
f 67/53/22 7/46/22 16/20/22 66/51/22
f 4/4/23 6/3/23 71/48/23 70/49/23
f 4/4/4 10/21/4 12/20/4 6/3/4
f 12/20/24 10/21/24 73/50/24 72/51/24
f 73/50/25 10/21/25 4/44/25 70/52/25
f 71/53/26 6/46/26 12/20/26 72/51/26
s 1
usemtl MAT_door_knob
f 74/59/27 93/60/28 92/61/29 76/62/30
f 76/62/30 92/61/29 94/63/31 78/64/32
f 78/64/32 94/63/31 95/65/33 80/66/34
f 80/66/34 95/65/33 96/67/35 82/68/36
f 82/68/36 96/67/35 97/69/37 84/70/38
f 84/70/38 97/69/37 98/71/39 86/72/40
f 86/72/40 98/71/39 99/73/41 88/74/42
f 77/75/43 75/76/44 91/77/45 89/78/46 87/79/47 85/80/48 83/81/49 81/82/50 79/83/51
f 88/74/42 99/73/41 100/84/52 90/85/53
f 90/85/53 100/84/52 93/86/28 74/87/27
f 90/85/53 74/87/27 110/87/54 118/85/55
f 102/88/56 101/89/57 92/90/29 93/91/28
f 101/89/57 103/92/58 94/93/31 92/90/29
f 103/92/58 104/94/59 95/95/33 94/93/31
f 104/94/59 105/96/60 96/97/35 95/95/33
f 105/96/60 106/98/61 97/99/37 96/97/35
f 106/98/61 107/100/62 98/101/39 97/99/37
f 107/100/62 108/102/63 99/103/41 98/101/39
f 108/102/63 109/104/64 100/105/52 99/103/41
f 109/104/64 102/88/56 93/91/28 100/105/52
f 75/76/44 77/75/43 101/89/57 102/88/56
f 77/75/43 79/83/51 103/92/58 101/89/57
f 79/83/51 81/82/50 104/94/59 103/92/58
f 81/82/50 83/81/49 105/96/60 104/94/59
f 83/81/49 85/80/48 106/98/61 105/96/60
f 85/80/48 87/79/47 107/100/62 106/98/61
f 87/79/47 89/78/46 108/102/63 107/100/62
f 89/78/46 91/77/45 109/104/64 108/102/63
f 91/77/45 75/76/44 102/88/56 109/104/64
f 110/106/54 111/107/65 112/108/66 113/109/67 114/110/68 115/111/69 116/112/70 117/113/71 118/114/55
f 88/74/42 90/85/53 118/85/55 117/74/71
f 86/72/40 88/74/42 117/74/71 116/72/70
f 84/70/38 86/72/40 116/72/70 115/70/69
f 82/68/36 84/70/38 115/70/69 114/68/68
f 80/66/34 82/68/36 114/68/68 113/66/67
f 74/59/27 76/62/30 111/62/65 110/59/54
f 78/64/32 80/66/34 113/66/67 112/64/66
f 76/62/30 78/64/32 112/64/66 111/62/65
f 119/59/72 138/60/73 137/61/74 121/62/75
f 121/62/75 137/61/74 139/63/76 123/64/77
f 123/64/77 139/63/76 140/65/78 125/66/79
f 125/66/79 140/65/78 141/67/80 127/68/81
f 127/68/81 141/67/80 142/69/82 129/70/83
f 129/70/83 142/69/82 143/71/84 131/72/85
f 131/72/85 143/71/84 144/73/86 133/74/87
f 122/75/88 120/76/89 136/77/90 134/78/91 132/79/92 130/80/93 128/81/94 126/82/95 124/83/96
f 133/74/87 144/73/86 145/84/97 135/85/98
f 135/85/98 145/84/97 138/86/73 119/87/72
f 135/85/98 119/87/72 155/87/99 163/85/100
f 147/88/101 146/89/102 137/90/74 138/91/73
f 146/89/102 148/92/103 139/93/76 137/90/74
f 148/92/103 149/94/104 140/95/78 139/93/76
f 149/94/104 150/96/105 141/97/80 140/95/78
f 150/96/105 151/98/106 142/99/82 141/97/80
f 151/98/106 152/100/107 143/101/84 142/99/82
f 152/100/107 153/102/108 144/103/86 143/101/84
f 153/102/108 154/104/109 145/105/97 144/103/86
f 154/104/109 147/88/101 138/91/73 145/105/97
f 120/76/89 122/75/88 146/89/102 147/88/101
f 122/75/88 124/83/96 148/92/103 146/89/102
f 124/83/96 126/82/95 149/94/104 148/92/103
f 126/82/95 128/81/94 150/96/105 149/94/104
f 128/81/94 130/80/93 151/98/106 150/96/105
f 130/80/93 132/79/92 152/100/107 151/98/106
f 132/79/92 134/78/91 153/102/108 152/100/107
f 134/78/91 136/77/90 154/104/109 153/102/108
f 136/77/90 120/76/89 147/88/101 154/104/109
f 155/106/99 156/107/110 157/108/111 158/109/112 159/110/113 160/111/114 161/112/115 162/113/116 163/114/100
f 133/74/87 135/85/98 163/85/100 162/74/116
f 131/72/85 133/74/87 162/74/116 161/72/115
f 129/70/83 131/72/85 161/72/115 160/70/114
f 127/68/81 129/70/83 160/70/114 159/68/113
f 125/66/79 127/68/81 159/68/113 158/66/112
f 119/59/72 121/62/75 156/62/110 155/59/99
f 123/64/77 125/66/79 158/66/112 157/64/111
f 121/62/75 123/64/77 157/64/111 156/62/110
f 164/59/117 165/60/118 167/115/119 166/116/120
f 166/116/120 167/115/119 169/117/121 168/118/122
f 168/118/122 169/117/121 171/119/123 170/120/124
f 170/120/124 171/119/123 173/121/125 172/122/126
f 172/122/126 173/121/125 175/123/127 174/124/128
f 167/125/119 165/91/118 177/126/129 175/127/127 173/128/125 171/129/123 169/130/121
f 174/124/128 175/123/127 177/131/129 176/132/130
f 176/132/130 177/131/129 165/133/118 164/134/117
f 164/106/117 166/135/120 168/136/122 170/137/124 172/138/126 174/139/128 176/140/130
f 178/59/117 179/60/118 181/115/119 180/116/120
f 180/116/120 181/115/119 183/117/121 182/118/122
f 182/118/122 183/117/121 185/119/123 184/120/124
f 184/120/124 185/119/123 187/121/125 186/122/126
f 186/122/126 187/121/125 189/123/127 188/124/128
f 181/125/119 179/91/118 191/126/129 189/127/127 187/128/125 185/129/123 183/130/121
f 188/124/128 189/123/127 191/131/129 190/132/130
f 190/132/130 191/131/129 179/133/118 178/134/117
f 178/106/117 180/135/120 182/136/122 184/137/124 186/138/126 188/139/128 190/140/130
s 0
f 192/1/3 193/2/3 208/3/3 209/4/3
f 200/141/4 203/142/4 199/143/4 198/144/4
f 213/21/1 212/20/1 197/24/1 196/25/1
f 204/145/2 207/146/2 193/39/2 192/40/2
f 214/147/131 213/21/131 196/25/131 205/148/131
f 215/149/132 208/46/132 193/47/132 207/150/132
f 212/20/133 211/151/133 206/152/133 197/24/133
f 211/151/6 215/149/6 207/150/6 206/152/6
f 209/44/134 210/153/134 204/154/134 192/45/134
f 210/153/5 214/147/5 205/148/5 204/154/5
f 196/25/2 197/24/2 206/155/2 205/156/2
f 205/156/2 206/155/2 207/146/2 204/145/2
f 194/157/4 195/158/4 202/159/4 201/160/4
f 201/160/4 202/159/4 203/142/4 200/141/4
f 195/158/135 194/157/135 209/4/135 208/3/135
f 194/157/136 201/160/136 210/161/136 209/4/136
f 199/143/137 203/142/137 211/162/137 212/20/137
f 198/144/138 199/143/138 212/20/138 213/21/138
f 200/141/139 198/144/139 213/21/139 214/163/139
f 201/160/140 200/141/140 214/163/140 210/161/140
f 202/159/141 195/158/141 208/3/141 215/164/141
f 203/142/142 202/159/142 215/164/142 211/162/142
f 216/1/1 217/2/1 232/3/1 233/4/1
f 224/141/2 227/142/2 223/143/2 222/144/2
f 237/21/3 236/20/3 221/24/3 220/25/3
f 228/145/4 231/146/4 217/39/4 216/40/4
f 238/147/134 237/21/134 220/25/134 229/148/134
f 239/149/133 232/46/133 217/47/133 231/150/133
f 236/20/132 235/151/132 230/152/132 221/24/132
f 235/151/6 239/149/6 231/150/6 230/152/6
f 233/44/131 234/153/131 228/154/131 216/45/131
f 234/153/5 238/147/5 229/148/5 228/154/5
f 220/25/4 221/24/4 230/155/4 229/156/4
f 229/156/4 230/155/4 231/146/4 228/145/4
f 218/157/2 219/158/2 226/159/2 225/160/2
f 225/160/2 226/159/2 227/142/2 224/141/2
f 219/158/143 218/157/143 233/4/143 232/3/143
f 218/157/144 225/160/144 234/161/144 233/4/144
f 223/143/145 227/142/145 235/162/145 236/20/145
f 222/144/146 223/143/146 236/20/146 237/21/146
f 224/141/147 222/144/147 237/21/147 238/163/147
f 225/160/148 224/141/148 238/163/148 234/161/148
f 226/159/149 219/158/149 232/3/149 239/164/149
f 227/142/150 226/159/150 239/164/150 235/162/150
o UCX_door_00
v 0.100000 0.000000 2.000000
v 0.100000 7.000000 2.000000
v -0.100000 0.000000 2.000000
v -0.100000 7.000000 2.000000
v 0.100000 0.000000 -2.000000
v 0.100000 7.000000 -2.000000
v -0.100000 0.000000 -2.000000
v -0.100000 7.000000 -2.000000
vn -0.0000 -0.0000 1.0000
vn -1.0000 -0.0000 -0.0000
vn -0.0000 -0.0000 -1.0000
vn 1.0000 -0.0000 -0.0000
vn -0.0000 -1.0000 -0.0000
vn -0.0000 1.0000 -0.0000
vt 0.375000 0.000000
vt 0.625000 0.000000
vt 0.625000 0.250000
vt 0.375000 0.250000
vt 0.625000 0.500000
vt 0.375000 0.500000
vt 0.625000 0.750000
vt 0.375000 0.750000
vt 0.625000 1.000000
vt 0.375000 1.000000
vt 0.125000 0.500000
vt 0.125000 0.750000
vt 0.875000 0.500000
vt 0.875000 0.750000
s 0
f 240/165/151 241/166/151 243/167/151 242/168/151
f 242/168/152 243/167/152 247/169/152 246/170/152
f 246/170/153 247/169/153 245/171/153 244/172/153
f 244/172/154 245/171/154 241/173/154 240/174/154
f 242/175/155 246/170/155 244/172/155 240/176/155
f 247/169/156 243/177/156 241/178/156 245/171/156
