# Blender 4.4.3
# www.blender.org
mtllib lilypad.mtl
o lilypad
v -0.000000 -0.000542 -2.314306
v 0.598987 -0.000542 -2.235448
v 1.157153 -0.000542 -2.004248
v 1.636462 -0.000542 -1.636462
v 2.004248 -0.000542 -1.157153
v 2.235448 -0.000543 -0.598986
v 2.314306 -0.000542 -0.000000
v 2.235448 -0.000542 0.598987
v 2.004248 -0.000542 1.157153
v 1.636462 -0.000542 1.636462
v 1.157153 -0.000542 2.004248
v 0.598987 -0.000542 2.235448
v -0.000000 -0.000542 2.314306
v -0.598987 -0.000542 2.235448
v -1.157153 -0.000542 2.004248
v -1.636462 -0.000542 1.636462
v -2.004248 -0.000542 1.157153
v -2.235448 -0.000542 0.598987
v -2.314306 -0.000542 -0.000000
v -2.235448 -0.000542 -0.598987
v -2.004248 -0.000542 -1.157153
v -1.636462 -0.000542 -1.636462
v -1.157153 -0.000542 -2.004248
v -0.598987 -0.000542 -2.235448
v 0.530874 -0.000543 -0.097838
v -0.002245 -0.179556 -2.345347
v 0.604848 -0.179556 -2.265422
v 0.635892 0.085347 -2.385226
v -0.003358 0.085347 -2.469385
v 1.170569 -0.179556 -2.031092
v 1.231578 0.085347 -2.138485
v 1.656365 -0.179556 -1.658328
v 1.743106 0.085347 -1.745976
v 2.029129 -0.179556 -1.172533
v 2.135614 0.085347 -1.234449
v 2.263458 -0.179556 -0.606811
v 2.382355 0.085347 -0.638763
v 2.298618 -0.047105 -0.623143
v 0.522762 -0.179556 -0.096474
v 2.343384 -0.179556 0.000282
v 2.382777 -0.047105 0.016107
v 2.263458 -0.179556 0.607376
v 2.382355 0.085347 0.639737
v 2.466514 0.085347 0.000487
v 2.029129 -0.179556 1.173097
v 2.135614 0.085347 1.235423
v 1.656365 -0.179556 1.658893
v 1.743106 0.085347 1.746951
v 1.170569 -0.179556 2.031657
v 1.231578 0.085347 2.139459
v 0.604848 -0.179556 2.265986
v 0.635892 0.085347 2.386200
v -0.002245 -0.179556 2.345912
v -0.003358 0.085347 2.470359
v -0.609339 -0.179556 2.265986
v -0.642608 0.085347 2.386200
v -1.175060 -0.179556 2.031657
v -1.238294 0.085347 2.139459
v -1.660856 -0.179556 1.658893
v -1.749821 0.085347 1.746951
v -2.033620 -0.179556 1.173097
v -2.142330 0.085347 1.235423
v -2.267950 -0.179556 0.607376
v -2.389071 0.085347 0.639737
v -2.347875 -0.179556 0.000282
v -2.473230 0.085347 0.000487
v -2.267950 -0.179556 -0.606811
v -2.389071 0.085347 -0.638763
v -2.033620 -0.179556 -1.172533
v -2.142330 0.085347 -1.234449
v -1.660856 -0.179556 -1.658328
v -1.749821 0.085347 -1.745976
v -1.175060 -0.179556 -2.031092
v -1.238294 0.085347 -2.138485
v -0.609339 -0.179556 -2.265422
v -0.642608 0.085347 -2.385226
v 0.549459 -0.047104 -0.101394
v 0.635892 0.085347 -2.385226
v -0.003358 0.085347 -2.469385
v 1.231578 0.085347 -2.138485
v 1.743106 0.085347 -1.745976
v 2.135614 0.085347 -1.234449
v 2.382355 0.085347 -0.638763
v 2.382355 0.085347 0.639737
v 2.466514 0.085347 0.000487
v 2.135614 0.085347 1.235423
v 1.743106 0.085347 1.746951
v 1.231578 0.085347 2.139459
v 0.635892 0.085347 2.386200
v -0.003358 0.085347 2.470359
v -0.642608 0.085347 2.386200
v -1.238294 0.085347 2.139459
v -1.749821 0.085347 1.746951
v -2.142330 0.085347 1.235423
v -2.389071 0.085347 0.639737
v -2.473230 0.085347 0.000487
v -2.389071 0.085347 -0.638763
v -2.142330 0.085347 -1.234449
v -1.749821 0.085347 -1.745976
v -1.238294 0.085347 -2.138485
v -0.642608 0.085347 -2.385226
vn 0.0592 -0.0787 -0.9951
vn 0.0590 -0.0251 -0.9979
vn 0.9872 -0.1128 -0.1126
vn 0.9426 -0.3157 -0.1091
vn 0.4569 -0.8691 -0.1893
vn 0.4252 -0.8712 -0.2454
vn 0.4252 -0.8712 -0.2455
vn 0.3464 -0.8718 -0.3464
vn 0.2443 -0.8726 -0.4229
vn 0.2441 -0.8726 -0.4230
vn -0.0000 -1.0000 -0.0000
vn 0.1260 -0.8737 -0.4699
vn 0.1259 -0.8737 -0.4700
vn 0.0638 -0.8724 -0.4846
vn 0.1248 0.8760 0.4660
vn 0.0635 0.8736 0.4825
vn 0.1249 0.8760 0.4659
vn 0.1854 0.8748 0.4476
vn -0.2938 -0.8759 -0.3828
vn -0.3383 -0.8781 -0.3384
vn -0.3384 -0.8781 -0.3383
vn -0.4131 -0.8789 -0.2386
vn -0.4132 -0.8789 -0.2385
vn -0.0000 1.0000 -0.0000
vn -0.4598 -0.8794 -0.1232
vn -0.4755 -0.8797 -0.0000
vn -0.4592 -0.8798 0.1231
vn -0.4592 -0.8798 0.1230
vn -0.4122 -0.8795 0.2380
vn -0.4122 -0.8795 0.2379
vn -0.3372 -0.8789 0.3373
vn -0.3373 -0.8789 0.3372
vn -0.1060 0.1823 0.9775
vn -0.2391 -0.8782 0.4143
vn -0.2392 -0.8782 0.4143
vn -0.1242 -0.8772 0.4638
vn -0.1243 -0.8772 0.4638
vn 0.0001 -0.8761 0.4822
vn -0.0001 -0.8761 0.4822
vn 0.2968 -0.0645 0.9528
vn 0.2845 -0.0146 0.9586
vn 0.3039 -0.0802 0.9493
vn 0.1254 -0.8749 0.4678
vn 0.1253 -0.8749 0.4678
vn 0.2432 -0.8738 0.4211
vn 0.2431 -0.8738 0.4212
vn 0.3453 -0.8727 0.3452
vn 0.3452 -0.8727 0.3453
vn 0.4242 -0.8719 0.2448
vn 0.4241 -0.8719 0.2449
vn 0.4741 -0.8712 0.1270
vn 0.4741 -0.8712 0.1271
vn -0.0000 -0.4241 -0.9056
vn 0.2345 -0.4233 -0.8751
vn 0.4532 -0.4226 -0.7849
vn 0.6410 -0.4220 -0.6411
vn 0.6411 -0.4220 -0.6410
vn 0.7890 -0.4224 -0.4462
vn 0.8448 -0.4193 -0.3324
vn 0.9019 -0.4193 0.1040
vn 0.8773 -0.4225 0.2275
vn 0.7850 -0.4222 0.4533
vn 0.7851 -0.4222 0.4532
vn 0.6408 -0.4228 0.6408
vn 0.4529 -0.4236 0.7845
vn 0.2343 -0.4244 0.8746
vn 0.2344 -0.4244 0.8746
vn -0.0000 -0.4252 0.9051
vn -0.2342 -0.4260 0.8739
vn -0.2341 -0.4260 0.8739
vn -0.4522 -0.4267 0.7832
vn -0.6393 -0.4272 0.6393
vn -0.7829 -0.4276 0.4520
vn -0.8731 -0.4278 0.2339
vn -0.9039 -0.4277 -0.0000
vn -0.8732 -0.4275 -0.2340
vn -0.7831 -0.4270 -0.4521
vn -0.6396 -0.4264 -0.6396
vn -0.4524 -0.4257 -0.7836
vn -0.2343 -0.4249 -0.8744
vn 0.0585 0.0265 -0.9979
vn 0.2836 0.0107 0.9589
vn 0.4903 -0.8692 0.0645
vt 0.847656 0.832031
vt 0.914707 0.899392
vt 0.876864 0.794123
vt 0.000000 0.000000
vt 0.678575 0.822809
vt 0.972145 0.822809
vt 0.959381 0.822809
vt 0.946617 0.822809
vt 0.933853 0.822809
vt 0.921089 0.822809
vt 0.914707 0.822809
vt 0.908325 0.822809
vt 0.895561 0.822809
vt 0.882798 0.822809
vt 0.870034 0.822809
vt 0.857270 0.822809
vt 0.844506 0.822809
vt 0.831742 0.822809
vt 0.818978 0.822809
vt 0.806214 0.822809
vt 0.793450 0.822809
vt 0.780686 0.822809
vt 0.767922 0.822809
vt 0.755158 0.822809
vt 0.742395 0.822809
vt 0.729631 0.822809
vt 0.716867 0.822809
vt 0.704103 0.822809
vt 0.691339 0.822809
vt 0.554370 0.840718
vt 0.448425 0.854666
vt 0.342480 0.840718
vt 0.243754 0.799825
vt 0.158977 0.734773
vt 0.093925 0.649996
vt 0.053032 0.551270
vt 0.039084 0.445325
vt 0.053032 0.339379
vt 0.093925 0.240654
vt 0.158977 0.155877
vt 0.243754 0.090825
vt 0.342480 0.049931
vt 0.448425 0.035983
vt 0.554370 0.049931
vt 0.653096 0.090825
vt 0.737873 0.155877
vt 0.802925 0.240654
vt 0.843819 0.339379
vt 0.857767 0.445325
vt 0.513583 0.442560
vt 0.843819 0.551270
vt 0.802925 0.649996
vt 0.737873 0.734773
vt 0.653096 0.799825
vt 0.921089 0.899392
vt 0.984909 0.822809
vt 0.984909 0.975976
vt 0.972145 0.975976
vt 0.959381 0.975976
vt 0.946617 0.975976
vt 0.933853 0.975976
vt 0.921089 0.975976
vt 0.908325 0.899392
vt 0.908325 0.975976
vt 0.895561 0.975976
vt 0.882798 0.975976
vt 0.870034 0.975976
vt 0.857270 0.975976
vt 0.844506 0.975976
vt 0.831742 0.975976
vt 0.818978 0.975976
vt 0.806214 0.975976
vt 0.793450 0.975976
vt 0.780686 0.975976
vt 0.767922 0.975976
vt 0.755158 0.975976
vt 0.742395 0.975976
vt 0.729631 0.975976
vt 0.716867 0.975976
vt 0.704103 0.975976
vt 0.691339 0.975976
vt 0.678575 0.975976
vt 0.875000 1.000000
vt 0.833333 1.000000
vt 0.666667 1.000000
vt 0.625000 1.000000
vt 0.458333 1.000000
vt 0.416666 1.000000
vt 0.250000 1.000000
vt 0.208333 1.000000
vt 0.376555 0.961489
vt 0.303145 0.951824
vt 0.958333 1.000000
vt 0.916667 1.000000
vt 0.750000 1.000000
vt 0.708333 1.000000
vt 0.541666 1.000000
vt 0.500000 1.000000
vt 0.333333 1.000000
vt 0.291667 1.000000
vt 0.125000 1.000000
vt 0.083333 1.000000
vt 0.791667 1.000000
vt 0.583333 1.000000
vt 0.375000 1.000000
vt 0.166666 1.000000
vt 1.000000 1.000000
vt 0.234738 0.923489
s 1
usemtl MAT_lilypad
f 7/1/1 41/1/2 77/2/3 25/3/4
f 6/4/5 5/4/6 82/4/7 83/4/5
f 5/4/6 4/4/8 81/4/8 82/4/7
f 4/4/8 3/4/9 80/4/10 81/4/8
f 26/5/11 27/6/11 30/7/11 32/8/11 34/9/11 36/10/11 39/11/11 40/12/11 42/13/11 45/14/11 47/15/11 49/16/11 51/17/11 53/18/11 55/19/11 57/20/11 59/21/11 61/22/11 63/23/11 65/24/11 67/25/11 69/26/11 71/27/11 73/28/11 75/29/11
f 3/4/9 2/4/12 78/4/13 80/4/10
f 2/4/12 1/4/14 79/4/14 78/4/13
f 24/4/15 1/4/16 79/4/16 101/4/17
f 23/4/18 24/4/15 101/4/17 100/4/18
f 23/4/19 22/4/20 99/4/21 100/4/19
f 22/4/20 21/4/22 98/4/23 99/4/21
f 2/30/24 1/31/24 24/32/24 23/33/24 22/34/24 21/35/24 20/36/24 19/37/24 18/38/24 17/39/24 16/40/24 15/41/24 14/42/24 13/43/24 12/44/24 11/45/24 10/46/24 9/47/24 8/48/24 7/49/24 25/50/24 6/51/24 5/52/24 4/53/24 3/54/24
f 21/4/22 20/4/25 97/4/25 98/4/23
f 20/4/25 19/4/26 96/4/26 97/4/25
f 6/4/24 83/4/24 37/4/24
f 19/4/26 18/4/27 95/4/28 96/4/26
f 18/4/27 17/4/29 94/4/30 95/4/28
f 17/4/29 16/4/31 93/4/32 94/4/30
f 7/1/33 41/1/33 85/1/33
f 16/4/31 15/4/34 92/4/35 93/4/32
f 15/4/34 14/4/36 91/4/37 92/4/35
f 14/4/36 13/4/38 90/4/39 91/4/37
f 6/1/40 38/1/41 83/1/42
f 13/4/38 12/4/43 89/4/44 90/4/39
f 7/4/24 44/4/24 85/4/24
f 12/4/43 11/4/45 88/4/46 89/4/44
f 11/4/45 10/4/47 87/4/48 88/4/46
f 25/3/4 77/2/3 38/55/41 6/1/40
f 10/4/47 9/4/49 86/4/50 87/4/48
f 9/4/49 8/4/51 84/4/52 86/4/50
f 26/56/53 29/57/53 28/58/54 27/6/54
f 27/6/54 28/58/54 31/59/55 30/7/55
f 30/7/55 31/59/55 33/60/56 32/8/57
f 32/8/57 33/60/56 35/61/58 34/9/58
f 34/9/58 35/61/58 37/62/59 38/55/59 36/10/59
f 40/12/60 41/63/60 44/64/60 43/65/61 42/13/61
f 42/13/61 43/65/61 46/66/62 45/14/63
f 45/14/63 46/66/62 48/67/64 47/15/64
f 47/15/64 48/67/64 50/68/65 49/16/65
f 49/16/65 50/68/65 52/69/66 51/17/67
f 51/17/67 52/69/66 54/70/68 53/18/68
f 53/18/68 54/70/68 56/71/69 55/19/70
f 55/19/70 56/71/69 58/72/71 57/20/71
f 57/20/71 58/72/71 60/73/72 59/21/72
f 59/21/72 60/73/72 62/74/73 61/22/73
f 61/22/73 62/74/73 64/75/74 63/23/74
f 63/23/74 64/75/74 66/76/75 65/24/75
f 65/24/75 66/76/75 68/77/76 67/25/76
f 67/25/76 68/77/76 70/78/77 69/26/77
f 69/26/77 70/78/77 72/79/78 71/27/78
f 71/27/78 72/79/78 74/80/79 73/28/79
f 73/28/79 74/80/79 76/81/80 75/29/80
f 75/29/80 76/81/80 29/82/53 26/5/53
f 39/11/81 77/2/3 41/63/2 40/12/81
f 36/10/82 38/55/41 77/2/3 39/11/82
f 33/83/24 35/84/24 82/84/24 81/83/24
f 46/85/24 48/86/24 87/86/24 86/85/24
f 56/87/24 58/88/24 92/88/24 91/87/24
f 66/89/24 68/90/24 97/90/24 96/89/24
f 29/91/24 76/92/24 101/92/24 79/91/24
f 28/93/24 31/94/24 80/94/24 78/93/24
f 44/95/24 43/96/24 84/96/24 85/95/24
f 52/97/24 54/98/24 90/98/24 89/97/24
f 62/99/24 64/100/24 95/100/24 94/99/24
f 72/101/24 74/102/24 100/102/24 99/101/24
f 35/84/24 37/103/24 83/103/24 82/84/24
f 48/86/24 50/104/24 88/104/24 87/86/24
f 58/88/24 60/105/24 93/105/24 92/88/24
f 68/90/24 70/106/24 98/106/24 97/90/24
f 31/94/24 33/83/24 81/83/24 80/94/24
f 43/96/24 46/85/24 86/85/24 84/96/24
f 29/107/24 28/93/24 78/93/24 79/107/24
f 54/98/24 56/87/24 91/87/24 90/98/24
f 64/100/24 66/89/24 96/89/24 95/100/24
f 76/92/24 74/108/24 100/108/24 101/92/24
f 50/104/24 52/97/24 89/97/24 88/104/24
f 60/105/24 62/99/24 94/99/24 93/105/24
f 70/106/24 72/101/24 99/101/24 98/106/24
f 8/4/51 7/4/83 85/4/83 84/4/52
o UCX_lilypad_00
v -1.972642 -0.600000 1.972642
v -1.972642 0.000000 1.972642
v -1.972642 -0.600000 -1.972642
v -1.972642 0.000000 -1.972642
v 1.972642 -0.600000 1.972642
v 1.972642 0.000000 1.972642
v 1.972642 -0.600000 -1.972642
v 1.972642 0.000000 -1.972642
vn -1.0000 -0.0000 -0.0000
vn -0.0000 -0.0000 -1.0000
vn 1.0000 -0.0000 -0.0000
vn -0.0000 -0.0000 1.0000
vn -0.0000 -1.0000 -0.0000
vn -0.0000 1.0000 -0.0000
vt 0.375000 0.000000
vt 0.625000 0.000000
vt 0.625000 0.250000
vt 0.375000 0.250000
vt 0.625000 0.500000
vt 0.375000 0.500000
vt 0.625000 0.750000
vt 0.375000 0.750000
vt 0.625000 1.000000
vt 0.375000 1.000000
vt 0.125000 0.500000
vt 0.125000 0.750000
vt 0.875000 0.500000
vt 0.875000 0.750000
s 0
f 102/109/84 103/110/84 105/111/84 104/112/84
f 104/112/85 105/111/85 109/113/85 108/114/85
f 108/114/86 109/113/86 107/115/86 106/116/86
f 106/116/87 107/115/87 103/117/87 102/118/87
f 104/119/88 108/114/88 106/116/88 102/120/88
f 109/113/89 105/121/89 103/122/89 107/115/89
