# Blender 4.4.3
# www.blender.org
mtllib lilypad.mtl
o lilypad
v 0.000000 -0.000542 -2.314306
v 0.598987 -0.000542 -2.235448
v 1.157153 -0.000542 -2.004248
v 1.636462 -0.000542 -1.636462
v 2.004248 -0.000542 -1.157153
v 2.235448 -0.000543 -0.598986
v 2.314306 -0.000542 0.000000
v 2.235448 -0.000542 0.598987
v 2.004248 -0.000542 1.157153
v 1.636462 -0.000542 1.636462
v 1.157153 -0.000542 2.004248
v 0.598987 -0.000542 2.235448
v 0.000000 -0.000542 2.314306
v -0.598987 -0.000542 2.235448
v -1.157153 -0.000542 2.004248
v -1.636462 -0.000542 1.636462
v -2.004248 -0.000542 1.157153
v -2.235448 -0.000542 0.598987
v -2.314306 -0.000542 0.000000
v -2.235448 -0.000542 -0.598987
v -2.004248 -0.000542 -1.157153
v -1.636462 -0.000542 -1.636462
v -1.157153 -0.000542 -2.004248
v -0.598987 -0.000542 -2.235448
v 0.530874 -0.000543 -0.097838
v -0.002245 -0.179556 -2.345347
v 0.604848 -0.179556 -2.265422
v 0.635892 0.085347 -2.385226
v -0.003358 0.085347 -2.469385
v 1.170569 -0.179556 -2.031092
v 1.231578 0.085347 -2.138485
v 1.656365 -0.179556 -1.658328
v 1.743106 0.085347 -1.745976
v 2.029129 -0.179556 -1.172533
v 2.135614 0.085347 -1.234449
v 2.263458 -0.179556 -0.606811
v 2.382355 0.085347 -0.638763
v 2.298618 -0.047105 -0.623143
v 0.522762 -0.179556 -0.096474
v 2.343384 -0.179556 0.000282
v 2.382777 -0.047105 0.016107
v 2.263458 -0.179556 0.607376
v 2.382355 0.085347 0.639737
v 2.466514 0.085347 0.000487
v 2.029129 -0.179556 1.173097
v 2.135614 0.085347 1.235423
v 1.656365 -0.179556 1.658893
v 1.743106 0.085347 1.746951
v 1.170569 -0.179556 2.031657
v 1.231578 0.085347 2.139459
v 0.604848 -0.179556 2.265986
v 0.635892 0.085347 2.386200
v -0.002245 -0.179556 2.345912
v -0.003358 0.085347 2.470359
v -0.609339 -0.179556 2.265986
v -0.642608 0.085347 2.386200
v -1.175060 -0.179556 2.031657
v -1.238294 0.085347 2.139459
v -1.660856 -0.179556 1.658893
v -1.749821 0.085347 1.746951
v -2.033620 -0.179556 1.173097
v -2.142330 0.085347 1.235423
v -2.267950 -0.179556 0.607376
v -2.389071 0.085347 0.639737
v -2.347875 -0.179556 0.000282
v -2.473230 0.085347 0.000487
v -2.267950 -0.179556 -0.606811
v -2.389071 0.085347 -0.638763
v -2.033620 -0.179556 -1.172533
v -2.142330 0.085347 -1.234449
v -1.660856 -0.179556 -1.658328
v -1.749821 0.085347 -1.745976
v -1.175060 -0.179556 -2.031092
v -1.238294 0.085347 -2.138485
v -0.609339 -0.179556 -2.265422
v -0.642608 0.085347 -2.385226
v 0.549459 -0.047104 -0.101394
v 0.635892 0.085347 -2.385226
v -0.003358 0.085347 -2.469385
v 1.231578 0.085347 -2.138485
v 1.743106 0.085347 -1.745976
v 2.135614 0.085347 -1.234449
v 2.382355 0.085347 -0.638763
v 2.382355 0.085347 0.639737
v 2.466514 0.085347 0.000487
v 2.135614 0.085347 1.235423
v 1.743106 0.085347 1.746951
v 1.231578 0.085347 2.139459
v 0.635892 0.085347 2.386200
v -0.003358 0.085347 2.470359
v -0.642608 0.085347 2.386200
v -1.238294 0.085347 2.139459
v -1.749821 0.085347 1.746951
v -2.142330 0.085347 1.235423
v -2.389071 0.085347 0.639737
v -2.473230 0.085347 0.000487
v -2.389071 0.085347 -0.638763
v -2.142330 0.085347 -1.234449
v -1.749821 0.085347 -1.745976
v -1.238294 0.085347 -2.138485
v -0.642608 0.085347 -2.385226
vn 0.0737 -0.1106 -0.9911
vn 0.0968 -0.1799 -0.9789
vn 0.9872 -0.1128 -0.1126
vn 0.9426 -0.3157 -0.1091
vn -0.2527 0.9619 0.1047
vn -0.4569 0.8691 0.1893
vn -0.4250 0.8712 0.2457
vn -0.2368 0.9619 0.1365
vn -0.3463 0.8718 0.3465
vn -0.1929 0.9621 0.1928
vn -0.2441 0.8726 0.4230
vn -0.1360 0.9623 0.2353
vn -0.0000 -1.0000 -0.0000
vn -0.1258 0.8737 0.4700
vn -0.0703 0.9626 0.2615
vn 0.0007 0.8748 0.4845
vn -0.0005 0.9630 0.2695
vn 0.1247 0.8760 0.4660
vn 0.1248 0.8760 0.4659
vn 0.1332 0.9637 0.2315
vn 0.2407 0.8771 0.4157
vn 0.3385 0.8780 0.3383
vn 0.1881 0.9640 0.1882
vn 0.4134 0.8789 0.2382
vn 0.2296 0.9642 0.1327
vn -0.0000 1.0000 -0.0000
vn 0.2555 0.9644 0.0688
vn 0.2642 0.9645 0.0001
vn 0.2552 0.9645 -0.0684
vn 0.2290 0.9644 -0.1324
vn 0.1872 0.9642 -0.1876
vn 0.1324 0.9641 -0.2303
vn 0.0684 0.9638 -0.2577
vn -0.0007 0.9635 -0.2679
vn -0.0703 0.9631 -0.2597
vn -0.1357 0.9628 -0.2337
vn -0.1924 0.9624 -0.1916
vn -0.2361 0.9622 -0.1358
vn -0.2640 0.9619 -0.0705
vn -0.2685 0.9626 -0.0353
vn 0.4599 0.8794 0.1229
vn 0.4754 0.8797 -0.0001
vn -0.0001 1.0000 -0.0000
vn -0.0000 -0.0000 1.0000
vn 0.5047 -0.8633 0.0001
vn 0.4592 0.8798 -0.1230
vn 0.4121 0.8795 -0.2382
vn 0.3373 0.8790 -0.3372
vn 0.1060 -0.1823 -0.9775
vn 0.2392 0.8782 -0.4142
vn 0.1242 0.8772 -0.4638
vn 0.0002 0.8761 -0.4822
vn 0.2968 -0.0645 0.9528
vn 0.2845 -0.0146 0.9586
vn 0.3039 -0.0802 0.9493
vn -0.1253 0.8749 -0.4678
vn 0.0001 1.0000 -0.0000
vn -0.0000 -0.0000 -1.0000
vn 0.4914 -0.8709 -0.0000
vn -0.2431 0.8738 -0.4212
vn -0.3450 0.8728 -0.3454
vn -0.4241 0.8719 -0.2450
vn -0.4741 0.8712 -0.1270
vn 0.0003 -0.4241 -0.9056
vn -0.0003 -0.4241 -0.9056
vn 0.2342 -0.4233 -0.8752
vn 0.2348 -0.4233 -0.8751
vn 0.4530 -0.4226 -0.7850
vn 0.4534 -0.4226 -0.7848
vn 0.6409 -0.4220 -0.6412
vn 0.6412 -0.4220 -0.6409
vn 0.7889 -0.4224 -0.4463
vn 0.7890 -0.4224 -0.4461
vn 0.8448 -0.4193 -0.3324
vn 0.9019 -0.4193 0.1040
vn 0.8773 -0.4225 0.2277
vn 0.8774 -0.4225 0.2274
vn 0.7850 -0.4222 0.4534
vn 0.7851 -0.4222 0.4531
vn 0.6406 -0.4228 0.6409
vn 0.6410 -0.4228 0.6406
vn 0.4527 -0.4236 0.7846
vn 0.4532 -0.4236 0.7844
vn 0.2341 -0.4244 0.8747
vn 0.2347 -0.4244 0.8746
vn -0.0003 -0.4252 0.9051
vn 0.0003 -0.4252 0.9051
vn -0.2344 -0.4260 0.8738
vn -0.2342 -0.4260 0.8739
vn -0.4521 -0.4267 0.7833
vn -0.4520 -0.4267 0.7834
vn -0.6394 -0.4272 0.6392
vn -0.6392 -0.4272 0.6394
vn -0.7829 -0.4276 0.4519
vn -0.7828 -0.4276 0.4521
vn -0.8731 -0.4278 0.2339
vn -0.8731 -0.4278 0.2340
vn -0.9039 -0.4277 -0.0000
vn -0.9039 -0.4277 -0.0001
vn -0.8733 -0.4275 -0.2339
vn -0.8732 -0.4275 -0.2341
vn -0.7832 -0.4270 -0.4520
vn -0.7830 -0.4270 -0.4523
vn -0.6398 -0.4264 -0.6394
vn -0.6394 -0.4264 -0.6398
vn -0.4527 -0.4257 -0.7835
vn -0.4522 -0.4257 -0.7838
vn -0.2342 -0.4249 -0.8744
vn -0.2340 -0.4249 -0.8745
vn 0.0585 0.0265 -0.9979
vn 0.0590 -0.0251 -0.9979
vn 0.2836 0.0107 0.9589
vn -0.0000 -1.0000 -0.0001
vn -0.0000 1.0000 -0.0001
vn -0.4903 0.8692 -0.0645
vt 0.847656 0.832031
vt 0.914707 0.899392
vt 0.876864 0.794123
vt 0.000000 0.000000
vt 0.678575 0.822809
vt 0.972145 0.822809
vt 0.959381 0.822809
vt 0.946617 0.822809
vt 0.933853 0.822809
vt 0.921089 0.822809
vt 0.914707 0.822809
vt 0.908325 0.822809
vt 0.895561 0.822809
vt 0.882798 0.822809
vt 0.870034 0.822809
vt 0.857270 0.822809
vt 0.844506 0.822809
vt 0.831742 0.822809
vt 0.818978 0.822809
vt 0.806214 0.822809
vt 0.793450 0.822809
vt 0.780686 0.822809
vt 0.767922 0.822809
vt 0.755158 0.822809
vt 0.742395 0.822809
vt 0.729631 0.822809
vt 0.716867 0.822809
vt 0.704103 0.822809
vt 0.691339 0.822809
vt 0.554370 0.840718
vt 0.448425 0.854666
vt 0.342480 0.840718
vt 0.243754 0.799825
vt 0.158977 0.734773
vt 0.093925 0.649996
vt 0.053032 0.551270
vt 0.039084 0.445325
vt 0.053032 0.339379
vt 0.093925 0.240654
vt 0.158977 0.155877
vt 0.243754 0.090825
vt 0.342480 0.049931
vt 0.448425 0.035983
vt 0.554370 0.049931
vt 0.653096 0.090825
vt 0.737873 0.155877
vt 0.802925 0.240654
vt 0.843819 0.339379
vt 0.857767 0.445325
vt 0.513583 0.442560
vt 0.843819 0.551270
vt 0.802925 0.649996
vt 0.737873 0.734773
vt 0.653096 0.799825
vt 0.921089 0.899392
vt 0.984909 0.822809
vt 0.984909 0.975976
vt 0.972145 0.975976
vt 0.959381 0.975976
vt 0.946617 0.975976
vt 0.933853 0.975976
vt 0.921089 0.975976
vt 0.908325 0.899392
vt 0.908325 0.975976
vt 0.895561 0.975976
vt 0.882798 0.975976
vt 0.870034 0.975976
vt 0.857270 0.975976
vt 0.844506 0.975976
vt 0.831742 0.975976
vt 0.818978 0.975976
vt 0.806214 0.975976
vt 0.793450 0.975976
vt 0.780686 0.975976
vt 0.767922 0.975976
vt 0.755158 0.975976
vt 0.742395 0.975976
vt 0.729631 0.975976
vt 0.716867 0.975976
vt 0.704103 0.975976
vt 0.691339 0.975976
vt 0.678575 0.975976
vt 0.875000 1.000000
vt 0.833333 1.000000
vt 0.666667 1.000000
vt 0.625000 1.000000
vt 0.458333 1.000000
vt 0.416666 1.000000
vt 0.250000 1.000000
vt 0.208333 1.000000
vt 0.376555 0.961489
vt 0.303145 0.951824
vt 0.958333 1.000000
vt 0.916667 1.000000
vt 0.750000 1.000000
vt 0.708333 1.000000
vt 0.541666 1.000000
vt 0.500000 1.000000
vt 0.333333 1.000000
vt 0.291667 1.000000
vt 0.125000 1.000000
vt 0.083333 1.000000
vt 0.791667 1.000000
vt 0.583333 1.000000
vt 0.375000 1.000000
vt 0.166666 1.000000
vt 1.000000 1.000000
vt 0.234738 0.923489
s 1
usemtl MAT_lilypad
f 7/1/1 41/1/2 77/2/3 25/3/4
f 6/4/5 83/4/6 82/4/7 5/4/8
f 5/4/8 82/4/7 81/4/9 4/4/10
f 4/4/10 81/4/9 80/4/11 3/4/12
f 26/5/13 27/6/13 30/7/13 32/8/13 34/9/13 36/10/13 39/11/13 40/12/13 42/13/13 45/14/13 47/15/13 49/16/13 51/17/13 53/18/13 55/19/13 57/20/13 59/21/13 61/22/13 63/23/13 65/24/13 67/25/13 69/26/13 71/27/13 73/28/13 75/29/13
f 3/4/12 80/4/11 78/4/14 2/4/15
f 2/4/15 78/4/14 79/4/16 1/4/17
f 24/4/18 1/4/17 79/4/16 101/4/19
f 23/4/20 24/4/18 101/4/19 100/4/21
f 23/4/20 100/4/21 99/4/22 22/4/23
f 22/4/23 99/4/22 98/4/24 21/4/25
f 2/30/15 1/31/17 24/32/26 23/33/20 22/34/23 21/35/25 20/36/27 19/37/28 18/38/29 17/39/30 16/40/31 15/41/32 14/42/33 13/43/34 12/44/35 11/45/36 10/46/37 9/47/38 8/48/39 7/49/40 25/50/26 6/51/5 5/52/8 4/53/10 3/54/12
f 21/4/25 98/4/24 97/4/41 20/4/27
f 20/4/27 97/4/41 96/4/42 19/4/28
s 0
f 6/4/43 37/4/44 83/4/45
s 1
f 19/4/28 96/4/42 95/4/46 18/4/29
f 18/4/29 95/4/46 94/4/47 17/4/30
f 17/4/30 94/4/47 93/4/48 16/4/31
f 7/1/1 85/1/49 41/1/2
f 16/4/31 93/4/48 92/4/50 15/4/32
f 15/4/32 92/4/50 91/4/51 14/4/33
f 14/4/33 91/4/51 90/4/52 13/4/34
f 6/1/53 38/1/54 83/1/55
f 13/4/34 90/4/52 89/4/56 12/4/35
s 0
f 7/4/57 85/4/58 44/4/59
s 1
f 12/4/35 89/4/56 88/4/60 11/4/36
f 11/4/36 88/4/60 87/4/61 10/4/37
f 25/3/4 77/2/3 38/55/54 6/1/53
f 10/4/37 87/4/61 86/4/62 9/4/38
f 9/4/38 86/4/62 84/4/63 8/4/39
f 26/56/64 29/57/65 28/58/66 27/6/67
f 27/6/67 28/58/66 31/59/68 30/7/69
f 30/7/69 31/59/68 33/60/70 32/8/71
f 32/8/71 33/60/70 35/61/72 34/9/73
f 34/9/73 35/61/72 37/62/74 38/55/74 36/10/74
f 40/12/75 41/63/75 44/64/75 43/65/76 42/13/77
f 42/13/77 43/65/76 46/66/78 45/14/79
f 45/14/79 46/66/78 48/67/80 47/15/81
f 47/15/81 48/67/80 50/68/82 49/16/83
f 49/16/83 50/68/82 52/69/84 51/17/85
f 51/17/85 52/69/84 54/70/86 53/18/87
f 53/18/87 54/70/86 56/71/88 55/19/89
f 55/19/89 56/71/88 58/72/90 57/20/91
f 57/20/91 58/72/90 60/73/92 59/21/93
f 59/21/93 60/73/92 62/74/94 61/22/95
f 61/22/95 62/74/94 64/75/96 63/23/97
f 63/23/97 64/75/96 66/76/98 65/24/99
f 65/24/99 66/76/98 68/77/100 67/25/101
f 67/25/101 68/77/100 70/78/102 69/26/103
f 69/26/103 70/78/102 72/79/104 71/27/105
f 71/27/105 72/79/104 74/80/106 73/28/107
f 73/28/107 74/80/106 76/81/108 75/29/109
f 75/29/109 76/81/108 29/82/65 26/5/64
f 39/11/110 77/2/3 41/63/111 40/12/110
f 36/10/112 38/55/54 77/2/3 39/11/112
s 0
f 33/83/44 81/83/26 82/84/44 35/84/13
f 46/85/44 86/85/13 87/86/44 48/86/26
f 56/87/58 91/87/13 92/88/58 58/88/26
f 66/89/58 96/89/26 97/90/58 68/90/113
f 29/91/26 76/92/58 101/92/26 79/91/58
f 28/93/58 78/93/26 80/94/58 31/94/13
f 44/95/58 85/95/113 84/96/58 43/96/26
f 52/97/58 89/97/13 90/98/58 54/98/26
f 62/99/44 94/99/13 95/100/58 64/100/26
f 72/101/58 99/101/26 100/102/58 74/102/113
f 35/84/58 82/84/26 83/103/44 37/103/13
f 48/86/58 87/86/113 88/104/58 50/104/26
f 58/88/58 92/88/13 93/105/58 60/105/114
f 68/90/44 97/90/26 98/106/58 70/106/13
f 31/94/58 80/94/114 81/83/58 33/83/13
f 43/96/58 84/96/13 86/85/44 46/85/26
f 29/107/58 79/107/26 78/93/58 28/93/13
f 54/98/58 90/98/13 91/87/58 56/87/26
f 64/100/58 95/100/13 96/89/58 66/89/114
f 76/92/26 74/108/58 100/108/26 101/92/58
f 50/104/58 88/104/13 89/97/58 52/97/26
f 60/105/44 93/105/13 94/99/44 62/99/26
f 70/106/44 98/106/26 99/101/44 72/101/13
s 1
f 8/4/39 84/4/63 85/4/115 7/4/40
o UCX_lilypad_00
v -1.972642 -0.600000 1.972642
v -1.972642 0.000000 1.972642
v -1.972642 -0.600000 -1.972642
v -1.972642 -0.000000 -1.972642
v 1.972642 -0.600000 1.972642
v 1.972642 0.000000 1.972642
v 1.972642 -0.600000 -1.972642
v 1.972642 -0.000000 -1.972642
vn -1.0000 -0.0000 -0.0000
vn -0.0000 -0.0000 -1.0000
vn 1.0000 -0.0000 -0.0000
vn -0.0000 -0.0000 1.0000
vn -0.0000 -1.0000 -0.0000
vn -0.0000 1.0000 -0.0000
vt 0.375000 0.000000
vt 0.625000 0.000000
vt 0.625000 0.250000
vt 0.375000 0.250000
vt 0.625000 0.500000
vt 0.375000 0.500000
vt 0.625000 0.750000
vt 0.375000 0.750000
vt 0.625000 1.000000
vt 0.375000 1.000000
vt 0.125000 0.500000
vt 0.125000 0.750000
vt 0.875000 0.500000
vt 0.875000 0.750000
s 1
usemtl MAT_lilypad
f 102/109/116 103/110/116 105/111/116 104/112/116
f 104/112/117 105/111/117 109/113/117 108/114/117
f 108/114/118 109/113/118 107/115/118 106/116/118
f 106/116/119 107/115/119 103/117/119 102/118/119
f 104/119/120 108/114/120 106/116/120 102/120/120
f 109/113/121 105/121/121 103/122/121 107/115/121
